<?xml version="1.0" standalone="no"?>
<!DOCTYPE svg PUBLIC "-//W3C//DTD SVG 20010904//EN"
 "http://www.w3.org/TR/2001/REC-SVG-20010904/DTD/svg10.dtd">
<svg version="1.0" xmlns="http://www.w3.org/2000/svg"
 width="260.000000pt" height="260.000000pt" viewBox="0 0 260.000000 260.000000"
 preserveAspectRatio="xMidYMid meet">
<metadata>
Created by potrace 1.11, written by Peter Selinger 2001-2013
</metadata>
<g transform="translate(0.000000,260.000000) scale(0.100000,-0.100000)"
fill="#000000" stroke="none">
<path d="M385 2080 c-3 -5 74 -95 191 -225 35 -38 64 -72 64 -76 0 -3 -99 -6
-221 -6 -121 -1 -222 -3 -224 -5 -2 -2 6 -15 18 -29 35 -41 148 -167 194 -218
23 -25 43 -49 43 -53 0 -10 4 -10 -242 -10 -115 0 -208 -1 -208 -3 0 -2 6 -10
13 -17 7 -7 62 -69 122 -138 61 -68 119 -134 130 -146 11 -11 47 -52 80 -89
66 -76 282 -321 380 -430 35 -38 72 -81 83 -95 l20 -25 692 0 c380 0 693 2
695 6 2 3 -22 35 -54 70 -32 35 -92 102 -133 149 l-76 85 230 5 229 5 -135
153 c-136 151 -136 152 -104 153 18 0 120 1 226 1 155 0 192 3 192 13 0 8 -6
18 -12 22 -7 4 -44 44 -83 88 -38 44 -72 82 -75 85 -3 3 -55 61 -115 130 -61
69 -112 127 -115 130 -3 3 -73 82 -155 175 -82 94 -166 188 -186 210 -21 22
-46 51 -57 65 l-20 25 -692 0 c-380 0 -693 -2 -695 -5z m1085 -285 c225 -68
390 -276 390 -492 0 -188 -115 -369 -290 -455 -94 -46 -144 -59 -244 -64 -304
-14 -563 200 -583 480 -7 98 6 163 51 256 63 131 216 247 371 283 77 18 232
14 305 -8z"/>
<path d="M939 1500 c-12 -7 -14 -43 -14 -202 l0 -193 31 -3 30 -3 0 83 -1 83
50 0 50 0 1 -80 0 -80 32 -3 c18 -2 32 0 33 5 1 11 1 353 0 378 -1 15 -7 20
-26 20 -14 -1 -28 -4 -31 -8 -3 -3 -7 -41 -8 -84 l-1 -77 -47 -1 c-27 -1 -48
1 -49 4 -1 4 -2 42 -3 85 -1 82 -10 96 -47 76z"/>
<path d="M1286 1496 c-69 -20 -78 -43 -77 -201 1 -146 3 -155 52 -181 57 -29
145 -7 168 42 13 30 15 252 1 288 -16 44 -85 69 -144 52z m82 -191 c3 -124 -3
-145 -42 -145 -45 0 -49 12 -51 127 -1 59 1 115 3 124 6 26 43 39 67 24 18
-11 20 -25 23 -130z"/>
<path d="M1488 1499 c-5 -4 -8 -17 -6 -30 3 -21 9 -24 43 -25 l40 0 0 -170 0
-169 31 -3 32 -3 0 166 c0 91 2 168 5 171 3 3 22 6 41 6 34 0 36 2 36 32 l0
31 -106 0 c-58 0 -110 -3 -116 -6z"/>
</g>
</svg>
