<svg xmlns="http://www.w3.org/2000/svg" xmlns:xlink="http://www.w3.org/1999/xlink" id="Layer_1" width="512" height="512" x="0" y="0" enable-background="new 0 0 512 512" version="1.1" viewBox="0 0 512 512" xml:space="preserve"><path d="M512,288v-64l-72.3-24.1c-3.6-11.9-8.4-23.3-14.1-34.1l34.1-68.2l-45.3-45.3l-68.2,34.1C335.4,80.7,324,76,312.1,72.3L288,0	h-64l-24.1,72.3c-11.9,3.6-23.3,8.4-34.1,14.1L97.6,52.4L52.4,97.6l34.1,68.2C80.7,176.6,76,188,72.3,199.9L0,224v64l72.3,24.1	c3.6,11.9,8.4,23.3,14.1,34.1l-34.1,68.2l45.3,45.3l68.2-34.1c10.8,5.7,22.2,10.5,34.1,14.1L224,512h64l24.1-72.3	c11.9-3.6,23.3-8.4,34.1-14.1l68.2,34.1l45.3-45.3l-34.1-68.2c5.7-10.8,10.5-22.2,14.1-34.1L512,288z M256,352c-53,0-96-43-96-96	s43-96,96-96s96,43,96,96S309,352,256,352z"/></svg>