<?xml version="1.0" encoding="utf-8"?>
<!-- Generator: Adobe Illustrator 16.0.4, SVG Export Plug-In . SVG Version: 6.00 Build 0)  -->
<!DOCTYPE svg PUBLIC "-//W3C//DTD SVG 1.1//EN" "http://www.w3.org/Graphics/SVG/1.1/DTD/svg11.dtd">
<svg version="1.1" xmlns="http://www.w3.org/2000/svg" xmlns:xlink="http://www.w3.org/1999/xlink" x="0px" y="0px" width="108px"
	 height="108px" viewBox="0 0 108 108" enable-background="new 0 0 108 108" xml:space="preserve">
<g id="white">
	<circle fill="#FFFFFF" cx="54" cy="54" r="54"/>
</g>
<g id="Background">
	<g>
		<path fill="#9FB1BF" d="M20.818,92.559c5.586,4.773,12.298,8.408,19.869,10.439c16.776,4.493,33.838,0.055,46.142-10.397
			c-11.343-2.033-22.195-3.03-33.127-3.03C42.852,89.57,32.072,90.555,20.818,92.559z"/>
		<path fill="#9FB1BF" d="M54,0C24.176,0,0,24.177,0,54s24.176,54,54,54s54-24.177,54-54S83.824,0,54,0z M40.381,104.143
			C12.607,96.699-3.874,68.153,3.565,40.381C11.01,12.607,39.559-3.875,67.33,3.566c27.773,7.443,44.256,35.99,36.813,63.763
			C96.701,95.104,68.156,111.585,40.381,104.143z"/>
		<path fill="#9FB1BF" d="M67.023,4.713C39.884-2.56,11.986,13.547,4.712,40.688C1.109,54.133,3.248,67.76,9.619,78.977
			c1.182-0.273,2.364-0.527,3.548-0.779c0.517-0.108,1.032-0.217,1.548-0.321c0.971-0.198,1.941-0.39,2.912-0.572
			c0.597-0.112,1.193-0.22,1.789-0.326c0.775-0.141,1.553-0.277,2.328-0.406c0.486-0.082,0.973-0.165,1.46-0.241
			c1.128-0.182,2.258-0.355,3.386-0.515c1.045-0.15,2.088-0.29,3.133-0.422c0.061-0.007,0.121-0.015,0.182-0.021
			c7.466-0.939,14.906-1.437,22.347-1.499c1.165-0.01,2.331-0.008,3.497,0.004c6.135,0.062,12.271,0.421,18.422,1.087
			c0.999,0.106,1.998,0.226,2.998,0.349c-0.004,0.005-0.007,0.008-0.011,0.013c0.954,0.118,1.907,0.239,2.86,0.373
			c0.002-0.003,0.004-0.005,0.006-0.007c0.457,0.062,0.913,0.119,1.37,0.188c-0.003,0.003-0.005,0.005-0.008,0.01
			c4.108,0.598,8.22,1.332,12.326,2.192c0.138,0.03,0.274,0.058,0.411,0.087c1.316,0.277,2.633,0.568,3.948,0.875
			c2.103-3.699,3.774-7.72,4.926-12.021C110.27,39.883,94.164,11.986,67.023,4.713z M50.296,46.989L31.688,31.834
			c4.866-4.898,11.333-8.197,18.55-9.06L50.296,46.989z M22.557,54.65c-0.004-0.214-0.016-0.426-0.016-0.64
			c0-8.074,3.045-15.437,8.045-21.007l16.035,19.979L22.557,54.65z M37.652,57.379l-13.445,6.748
			c-0.862-2.539-1.402-5.225-1.588-8.01L37.652,57.379z M50.232,19.816l0.003,1.195c-7.735,0.929-14.659,4.486-19.849,9.762
			l-0.922-0.752C34.878,24.484,42.128,20.756,50.232,19.816z M19.575,54.266c0-9.077,3.491-17.338,9.198-23.52l0.749,0.934
			c-5.44,5.956-8.761,13.883-8.761,22.586c0,0.17,0.009,0.339,0.012,0.509l-1.186,0.082C19.584,54.659,19.575,54.463,19.575,54.266z
			 M21.449,65.51c-1.046-3.045-1.682-6.281-1.834-9.645l1.193,0.101c0.156,3.137,0.748,6.157,1.709,9.009L21.449,65.51z
			 M26.247,74.705c-1.728-2.363-3.158-4.954-4.25-7.716l1.144-0.321c1.127,2.827,2.626,5.469,4.438,7.855
			C27.135,74.584,26.691,74.641,26.247,74.705z M29.888,74.216c-2.018-2.407-3.678-5.124-4.909-8.064l21.234-5.97l-5.275,8.16
			l0.065,0.62l0.612,0.068l10.045-6.358l0.53,10.057C44.768,72.787,37.341,73.281,29.888,74.216z M55.293,64.031l-0.456,0.358
			L54.406,64l-0.704-5.404l-3.976,2.484l-0.567-0.068l-0.04-0.573l2.241-3.251l-8.958,1.819l-0.522-0.321l0.271-0.547l4.686-1.774
			l-2.801-0.385l-0.385-0.444l0.38-0.445l6.679-1.021l-6.791-8.024l0.013-0.6l0.601-0.057l8.381,6.216l-0.449-14.479
			c-0.006-0.237,0.17-0.435,0.406-0.46c0.238-0.021,0.445,0.141,0.486,0.375l2.402,14.602l2.794-3.794l0.543-0.144l0.252,0.512
			l-0.653,2.791l4.302-2.969l0.604,0.076l-0.019,0.607l-5.026,5.317l6.188,2.301l0.294,0.493l-0.453,0.375h-5.092l7.551,6.822
			l0.052,0.61l-0.354,0.175l-0.256-0.083l-9.892-6.925L55.293,64.031z M63.634,37.323l-0.579,0.189l-6.067,8.854l-4.04-23.799
			c0.354-0.012,0.707-0.027,1.062-0.027c10.067,0,19.021,4.732,24.782,12.087l-0.317-0.046L63.313,44.621l0.648-6.783L63.634,37.323
			z M56.043,72.738l2.862-11.072l13.788,12.01C67.134,73.117,61.588,72.805,56.043,72.738z M78.402,73.879L65.758,59.42
			l12.074,0.004c0.246,0,0.454-0.176,0.496-0.415c0.039-0.237-0.094-0.471-0.334-0.548l-15.16-5.223l16.274-17.911l0.007-0.288
			c3.992,5.274,6.364,11.846,6.364,18.972C85.479,61.549,82.822,68.46,78.402,73.879z M82.176,74.855
			c-0.445-0.066-0.891-0.123-1.336-0.188c4.345-5.651,6.931-12.723,6.931-20.402c0-18.504-14.999-33.504-33.503-33.504
			c-0.543,0-1.082,0.016-1.619,0.041l-0.2-1.18c0.603-0.031,1.21-0.048,1.819-0.048c19.159,0,34.689,15.532,34.689,34.69
			C88.957,61.979,86.434,69.096,82.176,74.855z"/>
	</g>
</g>
<g id="GuideStar">
	<g>
		<path fill="#FFFFFF" d="M36.504,99.43c-1.958-0.596-2.64-2.209-2.062-4.113c0.581-1.914,2.11-2.865,3.988-2.295
			c0.787,0.238,1.326,0.617,1.729,1.062l-0.504,1.048c-0.364-0.472-0.843-0.892-1.522-1.097c-1.207-0.367-2.081,0.324-2.48,1.639
			c-0.402,1.323-0.042,2.39,1.2,2.768c0.43,0.13,0.761,0.133,1.113,0.064l0.416-1.368l-1.252-0.38l0.145-0.992l2.478,0.753
			l-0.895,2.942C38.163,99.659,37.326,99.679,36.504,99.43z"/>
		<path fill="#FFFFFF" d="M42.314,100.792c-1.086-0.208-1.731-0.938-1.493-2.179l0.516-2.68l1.105,0.213l-0.515,2.673
			c-0.11,0.571,0.083,0.955,0.577,1.05c0.501,0.097,0.814-0.183,0.924-0.748l0.517-2.686l1.104,0.213l-0.514,2.672
			C44.299,100.555,43.387,100.998,42.314,100.792z"/>
		<path fill="#FFFFFF" d="M45.551,101.263l0.579-4.475l1.108,0.144l-0.579,4.475L45.551,101.263z"/>
		<path fill="#FFFFFF" d="M49.67,101.692l-1.581-0.104l0.295-4.507l1.555,0.103c1.567,0.103,2.324,1.063,2.236,2.402
			C52.088,100.926,51.191,101.792,49.67,101.692z M49.849,98.051l-0.404-0.026l-0.182,2.769l0.405,0.027
			c0.797,0.052,1.32-0.334,1.384-1.301C51.113,98.573,50.613,98.101,49.849,98.051z"/>
		<path fill="#FFFFFF" d="M53.33,101.85l-0.062-4.507l2.808-0.039l0.013,0.901l-1.711,0.023l0.012,0.85l1.307-0.019l0.156,0.893
			l-1.45,0.021l0.014,0.953l1.77-0.024l0.013,0.907L53.33,101.85z"/>
		<path fill="#FFFFFF" d="M59.659,101.639c-0.864,0.082-1.607-0.035-2.286-0.27l0.104-1.379c0.693,0.29,1.45,0.461,2.092,0.4
			c0.455-0.043,0.752-0.269,0.716-0.649c-0.034-0.362-0.236-0.513-1.17-0.771c-1.329-0.369-1.927-0.734-2.027-1.795
			c-0.118-1.235,0.785-1.987,2.012-2.104c0.837-0.08,1.391,0.027,1.974,0.243l-0.114,1.36c-0.607-0.279-1.229-0.407-1.722-0.36
			c-0.483,0.046-0.696,0.272-0.668,0.569c0.031,0.326,0.223,0.467,1.051,0.697c1.452,0.377,2.046,0.809,2.144,1.831
			C61.896,100.807,60.932,101.518,59.659,101.639z"/>
		<path fill="#FFFFFF" d="M64.634,97.249l0.641,3.509l-1.107,0.203l-0.641-3.51l-1.256,0.229l-0.17-0.934l3.516-0.641l0.325,0.904
			L64.634,97.249z"/>
		<path fill="#FFFFFF" d="M67.292,95.681l1.19-0.308l2.617,3.864l-1.05,0.46l-0.568-0.867l-1.507,0.389l-0.058,0.98l-1.064,0.275
			L67.292,95.681z M68.016,98.304l0.981-0.253l-0.88-1.395L68.016,98.304z"/>
		<path fill="#FFFFFF" d="M74.495,98.28l-1.454-1.185l-0.266,0.092l0.506,1.465l-1.05,0.362l-1.475-4.264l1.489-0.515
			c1.032-0.357,1.801-0.097,2.104,0.781c0.205,0.593,0.048,1.098-0.385,1.488l1.587,1.209L74.495,98.28z M72.417,95.069l-0.34,0.118
			l0.43,1.242l0.327-0.113c0.457-0.158,0.64-0.471,0.499-0.879C73.196,95.042,72.874,94.911,72.417,95.069z"/>
	</g>
</g>
<g id="Seal_of_transparency">
	<g>
		<path fill="#FFFFFF" d="M16.47,60.653c0.192,1.18,0.101,2.21-0.161,3.163l-1.902-0.016c0.335-0.979,0.502-2.034,0.359-2.908
			c-0.102-0.621-0.438-1.01-0.957-0.924c-0.495,0.08-0.682,0.371-0.951,1.676c-0.387,1.859-0.833,2.714-2.278,2.949
			c-1.687,0.273-2.802-0.898-3.074-2.572c-0.187-1.14-0.09-1.91,0.153-2.731l1.88,0.032c-0.328,0.86-0.447,1.727-0.339,2.398
			c0.107,0.659,0.439,0.931,0.845,0.865c0.442-0.073,0.62-0.35,0.86-1.508c0.386-2.027,0.923-2.883,2.316-3.109
			C15.123,57.659,16.188,58.917,16.47,60.653z"/>
		<path fill="#FFFFFF" d="M15.838,56.727l-8.864-0.114l0.072-5.526l1.771,0.023l-0.043,3.367l1.67,0.021l0.034-2.569l1.764-0.261
			l-0.037,2.853l1.875,0.024l0.046-3.482l1.786,0.023L15.838,56.727z"/>
		<path fill="#FFFFFF" d="M7.771,45.87l0.509-2.36l9.089-1.193l-0.116,2.248l-2.022,0.234l-0.645,2.988l1.671,0.966l-0.454,2.109
			L7.771,45.87z M13.014,46.91l0.419-1.947l-3.222,0.316L13.014,46.91z"/>
		<path fill="#FFFFFF" d="M17.988,41.909l-8.15-3.479l0.862-2.02l6.401,2.732l1.069-2.504l1.864,0.475L17.988,41.909z"/>
		<path fill="#FFFFFF" d="M24.082,31.339c-1.569,1.999-4.055,2.171-6.205,0.482c-2.16-1.696-2.594-4.159-1.009-6.179
			s4.062-2.181,6.213-0.492C25.231,26.84,25.675,29.309,24.082,31.339z M18.214,26.715c-0.784,1-0.375,2.285,1.009,3.371
			s2.73,1.181,3.515,0.181c0.792-1.01,0.374-2.285-1.009-3.371C20.345,25.81,19.006,25.705,18.214,26.715z"/>
		<path fill="#FFFFFF" d="M24.416,20.604l1.177,1.379l1.759-1.503l1.429,1.197l-1.993,1.702l2.195,2.57l-1.662,1.419l-5.76-6.743
			l4.037-3.447l1.193,1.397L24.416,20.604z"/>
		<path fill="#FFFFFF" d="M34.801,13.921l3.103,6.275l-1.979,0.978l-3.104-6.272l-2.244,1.11l-0.826-1.67l6.285-3.108l1.102,1.532
			L34.801,13.921z"/>
		<path fill="#FFFFFF" d="M45.326,17.76l-2.688-2.521l-0.532,0.145l0.793,2.938l-2.108,0.568l-2.309-8.555L41.47,9.53
			c2.069-0.56,3.54,0.056,4.015,1.815c0.321,1.191-0.056,2.156-0.956,2.865l2.945,2.583L45.326,17.76z M41.69,11.186l-0.682,0.186
			l0.673,2.49l0.657-0.177c0.917-0.247,1.317-0.835,1.097-1.651C43.222,11.238,42.607,10.938,41.69,11.186z"/>
		<path fill="#FFFFFF" d="M49.99,7.977l2.412-0.135l3.564,8.449l-2.199,0.483l-0.764-1.888l-3.054,0.172l-0.486,1.867l-2.155,0.122
			L49.99,7.977z M50.381,13.309l1.989-0.111l-1.163-3.023L50.381,13.309z"/>
		<path fill="#FFFFFF" d="M61.918,17.6l-2.541-5.821l-0.901,5.228l-2.013-0.348l1.508-8.732l2.101,0.362l2.371,5.439l0.844-4.885
			l2.013,0.348l-1.508,8.732L61.918,17.6z"/>
		<path fill="#FFFFFF" d="M67.434,19.428c-1.113-0.435-1.953-1.039-2.64-1.75l0.981-1.629c0.672,0.787,1.494,1.467,2.32,1.79
			c0.586,0.229,1.091,0.138,1.282-0.354c0.184-0.466,0.028-0.774-0.959-1.671c-1.403-1.28-1.911-2.1-1.377-3.463
			c0.622-1.592,2.198-1.954,3.777-1.336c1.076,0.421,1.692,0.896,2.272,1.523l-0.983,1.602c-0.574-0.722-1.258-1.266-1.892-1.514
			c-0.622-0.242-1.024-0.097-1.174,0.285c-0.164,0.42-0.016,0.712,0.857,1.51c1.55,1.364,2.013,2.262,1.498,3.578
			C70.696,19.795,69.072,20.068,67.434,19.428z"/>
		<path fill="#FFFFFF" d="M75.025,19.812l-0.481-0.297L73,22.021l-1.87-1.154l4.654-7.547l2.429,1.497
			c1.837,1.135,2.458,2.649,1.445,4.29C78.605,20.813,76.852,20.939,75.025,19.812z M77.232,16.162l-0.47-0.291l-1.37,2.22
			l0.438,0.271c0.832,0.513,1.514,0.436,1.993-0.342C78.268,17.299,78.064,16.674,77.232,16.162z"/>
		<path fill="#FFFFFF" d="M84.294,19.203l1.789,1.621l-3.51,8.468l-1.889-1.226l0.808-1.867l-2.266-2.053l-1.672,0.965l-1.599-1.449
			L84.294,19.203z M80.772,23.225l1.476,1.336l1.337-2.949L80.772,23.225z"/>
		<path fill="#FFFFFF" d="M85.297,33.812l1.412-3.402l-0.322-0.448l-2.471,1.776l-1.273-1.771l7.191-5.172l1.807,2.512
			c1.252,1.741,1.193,3.332-0.287,4.396c-1,0.72-2.037,0.707-3.016,0.114l-1.383,3.664L85.297,33.812z M90.169,28.098l-0.413-0.574
			l-2.095,1.507l0.397,0.553c0.555,0.771,1.244,0.938,1.933,0.443C90.658,29.548,90.723,28.868,90.169,28.098z"/>
		<path fill="#FFFFFF" d="M86.891,36.152l8.026-3.753l2.34,5.001l-1.605,0.752l-1.425-3.048l-1.514,0.707l1.089,2.326l-1.474,1.001
			l-1.209-2.582l-1.697,0.794l1.474,3.153l-1.616,0.755L86.891,36.152z"/>
		<path fill="#FFFFFF" d="M90.939,47.412l4.308-4.671l-5.148,1.278l-0.494-1.982L98.21,39.9l0.514,2.07l-4.026,4.363l4.813-1.195
			l0.492,1.982l-8.605,2.137L90.939,47.412z"/>
		<path fill="#FFFFFF" d="M91.439,54.377c-0.082-2.646,1.642-4.307,4.441-4.392c2.748-0.085,4.649,1.54,4.732,4.212
			c0.029,0.938-0.154,1.702-0.506,2.355l-1.987-0.247c0.395-0.538,0.685-1.165,0.659-1.937c-0.042-1.387-1.122-2.24-2.818-2.189
			c-1.721,0.054-2.72,1.023-2.678,2.411c0.023,0.719,0.312,1.353,0.744,1.995l-1.828,0.339
			C91.767,56.231,91.472,55.417,91.439,54.377z"/>
		<path fill="#FFFFFF" d="M94.062,62.646l-3.214-0.556l0.374-2.164l3.188,0.553l5.838-2.108l-0.081,2.358l-3.948,1.273l3.215,2.445
			l-0.397,2.303L94.062,62.646z"/>
	</g>
</g>
<g id="Level">
	<g>
		<path fill="#9FB1BF" d="M18.325,88.445l-0.171-1.461l2.088-2.594c0.351-0.442,0.547-0.751,0.498-1.168
			c-0.041-0.355-0.349-0.541-0.818-0.486c-0.585,0.068-1.19,0.403-1.77,0.884l-0.441-1.694c0.592-0.461,1.312-0.82,2.354-0.941
			c1.493-0.175,2.499,0.469,2.649,1.753c0.118,1.013-0.329,1.71-1.092,2.604l-1.034,1.2l2.432-0.285l0.45,1.588L18.325,88.445z"/>
		<path fill="#9FB1BF" d="M26.804,87.65c-1.818,0.176-3.166-1.003-3.395-3.375c-0.229-2.373,0.869-3.787,2.688-3.963
			c1.829-0.176,3.156,1.004,3.385,3.377S28.633,87.475,26.804,87.65z M26.245,81.85c-0.69,0.066-0.908,0.868-0.777,2.227
			c0.131,1.359,0.498,2.104,1.188,2.038c0.7-0.067,0.897-0.867,0.767-2.226C27.291,82.529,26.945,81.782,26.245,81.85z"/>
		<path fill="#9FB1BF" d="M31.528,87.093l-0.405-5.157l-1.351,0.665l-0.358-1.606l1.788-1.006l1.887-0.148l0.557,7.086
			L31.528,87.093z"/>
		<path fill="#9FB1BF" d="M36.752,86.794l-2.001-0.2l2.069-5.266l-2.736,0.171l-0.358-1.703l5.104-0.319l0.102,1.614L36.752,86.794z
			"/>
		<path fill="#9FB1BF" d="M44.068,84.189l-0.336,0.012l0.076,2.173l-2.143,0.075l-0.252-7.244l2.509-0.088
			c1.868-0.064,3.041,0.704,3.1,2.373C47.082,83.201,45.895,84.126,44.068,84.189z M43.852,80.687l-0.263,0.009l0.067,1.942
			l0.242-0.009c0.714-0.024,1.091-0.354,1.067-1.035C44.943,80.964,44.565,80.662,43.852,80.687z"/>
		<path fill="#9FB1BF" d="M47.555,86.253l-0.115-7.254l2.155-0.034l0.086,5.425l2.051-0.033l0.323,1.825L47.555,86.253z"/>
		<path fill="#9FB1BF" d="M54.433,78.893l2.408,0.01l2.377,7.034l-2.178,0.327l-0.415-1.295l-2.281-0.01l-0.363,1.217l-2.081-0.008
			L54.433,78.893z M54.813,83.33l1.335,0.006l-0.642-2.294L54.813,83.33z"/>
		<path fill="#9FB1BF" d="M62.578,80.838l-0.135,5.459l-2.152-0.054l0.136-5.459l-1.942-0.048l0.044-1.785l5.826,0.145l0.25,1.792
			L62.578,80.838z"/>
		<path fill="#9FB1BF" d="M64.825,86.378l0.295-7.243l2.151,0.087l-0.295,7.243L64.825,86.378z"/>
		<path fill="#9FB1BF" d="M72.165,86.751l-2.144-3.915l-0.226,3.773l-1.991-0.119l0.432-7.232l2.117,0.127l1.953,3.588l0.206-3.46
			l1.992,0.119l-0.432,7.233L72.165,86.751z"/>
		<path fill="#9FB1BF" d="M77.831,87.271c-1.769-0.146-3.014-1.146-2.837-3.271l0.358-4.312l2.146,0.179l-0.361,4.345
			c-0.065,0.795,0.266,1.244,0.873,1.295c0.648,0.054,0.999-0.359,1.062-1.113l0.362-4.365l2.146,0.178l-0.358,4.312
			C81.047,86.622,79.579,87.417,77.831,87.271z"/>
		<path fill="#9FB1BF" d="M87.837,88.171l0.228-4.423l-1.459,4.286l-2.077-0.23l-0.493-4.503l-0.738,4.365l-1.837-0.203l1.312-7.145
			l2.766,0.307l0.538,4.666l1.549-4.434l2.693,0.299l-0.289,7.258L87.837,88.171z"/>
	</g>
</g>
<g id="Level_-_shading" opacity="0.5">
	<g>
		<path d="M18.325,88.445l-0.171-1.461l2.088-2.594c0.351-0.442,0.547-0.751,0.498-1.168c-0.041-0.355-0.349-0.541-0.818-0.486
			c-0.585,0.068-1.19,0.403-1.77,0.884l-0.441-1.694c0.592-0.461,1.312-0.82,2.354-0.941c1.493-0.175,2.499,0.469,2.649,1.753
			c0.118,1.013-0.329,1.71-1.092,2.604l-1.034,1.2l2.432-0.285l0.45,1.588L18.325,88.445z"/>
		<path d="M26.804,87.65c-1.818,0.176-3.166-1.003-3.395-3.375c-0.229-2.373,0.869-3.787,2.688-3.963
			c1.829-0.176,3.156,1.004,3.385,3.377S28.633,87.475,26.804,87.65z M26.245,81.85c-0.69,0.066-0.908,0.868-0.777,2.227
			c0.131,1.359,0.498,2.104,1.188,2.038c0.7-0.067,0.897-0.867,0.767-2.226C27.291,82.529,26.945,81.782,26.245,81.85z"/>
		<path d="M31.528,87.093l-0.405-5.157l-1.351,0.665l-0.358-1.606l1.788-1.006l1.887-0.148l0.557,7.086L31.528,87.093z"/>
		<path d="M36.752,86.794l-2.001-0.2l2.069-5.266l-2.736,0.171l-0.358-1.703l5.104-0.319l0.102,1.614L36.752,86.794z"/>
		<path d="M44.068,84.189l-0.336,0.012l0.076,2.173l-2.143,0.075l-0.252-7.244l2.509-0.088c1.868-0.064,3.041,0.704,3.1,2.373
			C47.082,83.201,45.895,84.126,44.068,84.189z M43.852,80.687l-0.263,0.009l0.067,1.942l0.242-0.009
			c0.714-0.024,1.091-0.354,1.067-1.035C44.943,80.964,44.565,80.662,43.852,80.687z"/>
		<path d="M47.555,86.253l-0.115-7.254l2.155-0.034l0.086,5.425l2.051-0.033l0.323,1.825L47.555,86.253z"/>
		<path d="M54.433,78.893l2.408,0.01l2.377,7.034l-2.178,0.327l-0.415-1.295l-2.281-0.01l-0.363,1.217l-2.081-0.008L54.433,78.893z
			 M54.813,83.33l1.335,0.006l-0.642-2.294L54.813,83.33z"/>
		<path d="M62.578,80.838l-0.135,5.459l-2.152-0.054l0.136-5.459l-1.942-0.048l0.044-1.785l5.826,0.145l0.25,1.792L62.578,80.838z"
			/>
		<path d="M64.825,86.378l0.295-7.243l2.151,0.087l-0.295,7.243L64.825,86.378z"/>
		<path d="M72.165,86.751l-2.144-3.915l-0.226,3.773l-1.991-0.119l0.432-7.232l2.117,0.127l1.953,3.588l0.206-3.46l1.992,0.119
			l-0.432,7.233L72.165,86.751z"/>
		<path d="M77.831,87.271c-1.769-0.146-3.014-1.146-2.837-3.271l0.358-4.312l2.146,0.179l-0.361,4.345
			c-0.065,0.795,0.266,1.244,0.873,1.295c0.648,0.054,0.999-0.359,1.062-1.113l0.362-4.365l2.146,0.178l-0.358,4.312
			C81.047,86.622,79.579,87.417,77.831,87.271z"/>
		<path d="M87.837,88.171l0.228-4.423l-1.459,4.286l-2.077-0.23l-0.493-4.503l-0.738,4.365l-1.837-0.203l1.312-7.145l2.766,0.307
			l0.538,4.666l1.549-4.434l2.693,0.299l-0.289,7.258L87.837,88.171z"/>
	</g>
</g>
</svg>
