<svg xmlns="http://www.w3.org/2000/svg" width="67" height="41" viewBox="0 0 67 41">
  <g fill="#FFFFFF" fill-rule="evenodd" transform="translate(0 .25)">
    <path d="M30.8554667,17.3124667 C30.8554667,16.9091333 30.9414667,16.5491333 31.1134667,16.2384667 C31.2841333,15.9264667 31.5108,15.6724667 31.7921333,15.4698 C32.0721333,15.2678 32.3874667,15.1144667 32.7381333,15.0111333 C33.0874667,14.9084667 33.4394667,14.8564667 33.7948,14.8564667 C34.1488,14.8564667 34.5021333,14.9084667 34.8528,15.0111333 C35.2014667,15.1144667 35.5168,15.2678 35.7968,15.4698 C36.0788,15.6724667 36.3048,15.9264667 36.4768,16.2384667 C36.6488,16.5491333 36.7341333,16.9091333 36.7341333,17.3124667 L36.7341333,22.6224667 C36.7341333,23.0344667 36.6488,23.3958 36.4768,23.7018 C36.3048,24.0091333 36.0788,24.2618 35.7968,24.4644667 C35.5168,24.6678 35.2014667,24.8218 34.8528,24.9238 C34.5021333,25.0264667 34.1488,25.0778 33.7948,25.0778 C33.4394667,25.0778 33.0874667,25.0264667 32.7381333,24.9238 C32.3874667,24.8218 32.0721333,24.6678 31.7921333,24.4644667 C31.5108,24.2618 31.2841333,24.0091333 31.1134667,23.7018 C30.9414667,23.3958 30.8554667,23.0344667 30.8554667,22.6224667 L30.8554667,17.3124667 Z M32.5428,22.6251333 C32.5428,22.9711333 32.7354667,23.2291333 32.9714667,23.3931333 C33.2061333,23.5584667 33.4841333,23.6458 33.8048,23.6458 C34.1241333,23.6458 34.4034667,23.5584667 34.6388,23.3931333 C34.8728,23.2291333 35.0068,22.9711333 35.0068,22.6251333 L35.0068,17.3151333 C35.0068,16.9678 34.8728,16.7104667 34.6388,16.5464667 C34.4034667,16.3818 34.1241333,16.2711333 33.8048,16.2711333 C33.4841333,16.2711333 33.2061333,16.3818 32.9714667,16.5464667 C32.7354667,16.7104667 32.5428,16.9678 32.5428,17.3151333 L32.5428,22.6251333 Z"/>
    <polygon points="27.816 14.846 27.816 19.159 25.126 19.159 25.126 14.846 23.656 14.846 23.656 25.083 25.126 25.083 25.126 20.769 27.816 20.769 27.816 25.083 29.398 25.083 29.398 14.846"/>
    <polygon points="43.693 14.846 37.855 14.846 37.855 16.351 40.013 16.351 39.987 25.083 41.539 25.083 41.539 16.351 43.693 16.351"/>
    <path d="M54.5195333,23.9723333 L66.3995333,23.9723333 L59.2962,15.9736667 L52.2242,7.975 L45.1508667,0.000333333334 L9.6162,0.000333333334 L16.6882,7.975 L4.78153333,7.975 L11.8548667,15.9736667 L11.9095333,16.0276667 L0.0002,16.0276667 L7.10153333,24.0263333 L14.1775333,32.025 L21.2502,40.0003333 L56.7848667,40.0003333 L49.7088667,32.025 L49.6568667,31.947 L61.5655333,31.947 L54.5195333,23.9723333 Z M33.1995333,33.291 C25.2655333,33.291 18.8342,27.3403333 18.8342,20.001 C18.8342,12.659 25.2655333,6.70833333 33.1995333,6.70833333 C41.1342,6.70833333 47.5662,12.659 47.5662,20.001 C47.5662,27.3403333 41.1342,33.291 33.1995333,33.291 Z"/>
  </g>
</svg>
