<svg xmlns="http://www.w3.org/2000/svg" xmlns:xlink="http://www.w3.org/1999/xlink" width="198" height="48" viewBox="0 0 198 48"><defs><polygon id="a" points="0 48 197.027 48 197.027 0 0 0"/></defs><g fill="none" fill-rule="evenodd"><polygon fill="#D73F3F" points="97.519 .505 97.519 4.496 93.598 4.496 93.598 .505 91.385 .505 91.385 10.276 93.598 10.276 93.598 6.245 97.519 6.245 97.519 10.276 99.733 10.276 99.733 .505"/><path fill="#D73F3F" d="M104.1188 10.42536C103.7716 10.42536 103.4508 10.37336 103.1556 10.26856 102.8596 10.16376 102.602 10.00136 102.3828 9.78296 102.1652 9.56456 101.994 9.28456 101.8708 8.94296 101.7476 8.60136 101.686 8.19896 101.686 7.73416L101.686 3.12856 103.654 3.12856 103.654 7.46056C103.654 7.93416 103.7588 8.29176 103.9684 8.53336 104.178 8.77496 104.4876 8.89496 104.898 8.89496 105.3164 8.89496 105.6684 8.76536 105.9556 8.50536 106.2428 8.24616 106.386 7.85256 106.386 7.32376L106.386 3.12856 108.3548 3.12856 108.3548 10.27576 106.386 10.27576 106.386 9.15496C106.2044 9.51976 105.9292 9.82216 105.5596 10.06296 105.1916 10.30456 104.7108 10.42536 104.1188 10.42536M110.2672 3.12888L112.2496 3.12888 112.2496 4.22248C112.4304 3.88568 112.7064 3.59208 113.0752 3.34088 113.444 3.09048 113.8968 2.96568 114.4344 2.96568 114.9088 2.96568 115.3168 3.06568 115.6568 3.26568 115.9992 3.46568 116.256 3.78008 116.4296 4.20888 116.7208 3.77128 117.0816 3.45528 117.5088 3.25928 117.9376 3.06328 118.3792 2.96568 118.8344 2.96568 119.1624 2.96568 119.4704 3.01768 119.7568 3.12248 120.044 3.22728 120.2968 3.38808 120.5152 3.60808 120.724 3.83528 120.8888 4.12248 121.0072 4.46808 121.1256 4.81448 121.1848 5.22488 121.1848 5.69768L121.1848 10.27528 119.2168 10.27528 119.2168 5.90648C119.2168 5.44088 119.1184 5.10328 118.9232 4.89288 118.7272 4.68248 118.4512 4.57768 118.0968 4.57768 117.7144 4.57768 117.388 4.69848 117.1192 4.94008 116.8504 5.18248 116.7168 5.54968 116.7168 6.04328L116.7168 10.27528 114.7496 10.27528 114.7496 5.90648C114.7496 5.44088 114.6496 5.10328 114.4488 4.89288 114.248 4.68248 113.9744 4.57768 113.628 4.57768 113.2464 4.57768 112.92 4.69848 112.6512 4.94008 112.3832 5.18248 112.2496 5.54968 112.2496 6.04328L112.2496 10.27528 110.2672 10.27528 110.2672 3.12888zM125.55624 9.05936C125.99384 9.05936 126.35944 8.94656 126.65544 8.72256 126.95144 8.49696 127.10024 8.18256 127.10024 7.77936L127.10024 7.17376 126.33464 7.17376C125.76104 7.17376 125.31464 7.24736 124.99624 7.39376 124.67624 7.54096 124.51704 7.80656 124.51704 8.19216 124.51704 8.45856 124.60024 8.66896 124.76344 8.82496 124.92744 8.98096 125.19224 9.05936 125.55624 9.05936M124.96904 10.42576C124.64024 10.42576 124.33304 10.38416 124.04584 10.30256 123.75944 10.22016 123.50584 10.09296 123.28824 9.92016 123.06984 9.74736 122.89624 9.52656 122.76904 9.25696 122.64024 8.98896 122.57704 8.66736 122.57704 8.29376 122.57704 7.87536 122.66904 7.52016 122.85064 7.22816 123.03304 6.93696 123.28824 6.70016 123.61544 6.51776 123.94344 6.33536 124.33624 6.20416 124.79064 6.12176 125.24584 6.03936 125.74744 5.99856 126.29384 5.99856L127.10024 5.99856 127.10024 5.71136C127.10024 5.28336 127.02024 4.95776 126.86104 4.73456 126.70184 4.51136 126.39384 4.40016 125.93864 4.40016 125.54744 4.40016 125.25784 4.49136 125.07144 4.67376 124.88424 4.85536 124.76904 5.10176 124.72264 5.41056L122.85064 5.41056C122.87784 4.99216 122.98024 4.62736 123.15784 4.31856 123.33624 4.00816 123.56584 3.75296 123.84824 3.55296 124.13064 3.35296 124.46104 3.20416 124.83864 3.10896 125.21624 3.01296 125.62424 2.96576 126.06184 2.96576 126.49944 2.96576 126.90024 3.01296 127.26424 3.10896 127.62824 3.20416 127.94744 3.35696 128.22024 3.56576 128.48424 3.77616 128.68984 4.04976 128.83624 4.38576 128.98024 4.72336 129.05384 5.13296 129.05384 5.61616L129.05384 10.27536 127.12744 10.27536 127.12744 9.41456C126.91704 9.70656 126.64584 9.94736 126.31464 10.13856 125.98184 10.33056 125.53304 10.42576 124.96904 10.42576M130.91328 3.12888L132.89488 3.12888 132.89488 4.26328C133.07648 3.90808 133.35968 3.60248 133.74048 3.34728 134.12368 3.09368 134.61568 2.96568 135.21728 2.96568 135.57248 2.96568 135.89568 3.02008 136.18688 3.12888 136.47888 3.23848 136.73328 3.40248 136.95248 3.62088 137.16208 3.84888 137.32528 4.13848 137.44368 4.48808 137.56288 4.83928 137.62128 5.25128 137.62128 5.72488L137.62128 10.27528 135.64048 10.27528 135.64048 6.01208C135.64048 5.52008 135.53968 5.15848 135.33968 4.92648 135.13968 4.69368 134.82128 4.57768 134.38288 4.57768 133.95568 4.57768 133.59968 4.70808 133.31728 4.96728 133.03488 5.22648 132.89488 5.62088 132.89488 6.14888L132.89488 10.27528 130.91328 10.27528 130.91328 3.12888z"/><mask id="b" fill="#fff"><use xlink:href="#a"/></mask><path fill="#D73F3F" d="M139.5336 10.2752L141.5016 10.2752 141.5016 3.1288 139.5336 3.1288 139.5336 10.2752zM140.5048 2.1592C140.1848 2.1592 139.9184 2.0568 139.7048 1.8512 139.4904 1.6472 139.384 1.3896 139.384 1.08 139.384.7696 139.4904.5128 139.7048.308 139.9184.1024 140.1848 0 140.5048 0 140.8224 0 141.0912.1024 141.3104.308 141.5288.5128 141.6384.7696 141.6384 1.08 141.6384 1.3896 141.5288 1.6472 141.3104 1.8512 141.0912 2.0568 140.8224 2.1592 140.5048 2.1592zM146.09296 10.41208C145.33696 10.41208 144.76256 10.22248 144.37216 9.84488 143.97936 9.46728 143.78336 8.90408 143.78336 8.15688L143.78336 4.53688 142.86896 4.53688 142.86896 3.12888 143.78336 3.12888 143.78336 1.58568 145.75136 1.58568 145.75136 3.12888 147.25456 3.12888 147.25456 4.53688 145.75136 4.53688 145.75136 7.97928C145.75136 8.26168 145.81776 8.47368 145.94896 8.61448 146.08096 8.75688 146.27936 8.82648 146.54336 8.82648 146.68896 8.82648 146.82416 8.81608 146.94656 8.79288 147.07056 8.76968 147.18576 8.73608 147.29536 8.68968L147.29536 10.22008C147.15856 10.26568 146.98976 10.30968 146.78976 10.35048 146.58896 10.39128 146.35696 10.41208 146.09296 10.41208M151.38128 9.05936C151.81808 9.05936 152.18448 8.94656 152.48048 8.72256 152.77648 8.49696 152.92528 8.18256 152.92528 7.77936L152.92528 7.17376 152.15968 7.17376C151.58528 7.17376 151.13888 7.24736 150.82048 7.39376 150.50048 7.54096 150.34208 7.80656 150.34208 8.19216 150.34208 8.45856 150.42448 8.66896 150.58768 8.82496 150.75248 8.98096 151.01648 9.05936 151.38128 9.05936M150.79328 10.42576C150.46528 10.42576 150.15808 10.38416 149.87008 10.30256 149.58368 10.22016 149.33088 10.09296 149.11248 9.92016 148.89408 9.74736 148.72048 9.52656 148.59328 9.25696 148.46528 8.98896 148.40208 8.66736 148.40208 8.29376 148.40208 7.87536 148.49328 7.52016 148.67568 7.22816 148.85728 6.93696 149.11248 6.70016 149.44048 6.51776 149.76768 6.33536 150.16048 6.20416 150.61568 6.12176 151.07088 6.03936 151.57168 5.99856 152.11808 5.99856L152.92528 5.99856 152.92528 5.71136C152.92528 5.28336 152.84448 4.95776 152.68528 4.73456 152.52608 4.51136 152.21808 4.40016 151.76368 4.40016 151.37168 4.40016 151.08208 4.49136 150.89568 4.67376 150.70848 4.85536 150.59328 5.10176 150.54688 5.41056L148.67568 5.41056C148.70208 4.99216 148.80448 4.62736 148.98288 4.31856 149.16048 4.00816 149.39088 3.75296 149.67248 3.55296 149.95488 3.35296 150.28528 3.20416 150.66368 3.10896 151.04048 3.01296 151.44848 2.96576 151.88688 2.96576 152.32368 2.96576 152.72448 3.01296 153.08928 3.10896 153.45248 3.20416 153.77168 3.35696 154.04448 3.56576 154.30928 3.77616 154.51408 4.04976 154.66048 4.38576 154.80528 4.72336 154.87888 5.13296 154.87888 5.61616L154.87888 10.27536 152.95248 10.27536 152.95248 9.41456C152.74208 9.70656 152.47088 9.94736 152.13888 10.13856 151.80608 10.33056 151.35808 10.42576 150.79328 10.42576M156.73672 3.12888L158.71832 3.12888 158.71832 4.49608C158.94552 4.01288 159.24232 3.64808 159.60632 3.40248 159.97032 3.15688 160.44392 3.02888 161.02632 3.02008L161.02632 4.86408C160.28872 4.85528 159.71992 4.98728 159.31912 5.26088 158.91832 5.53448 158.71832 6.01208 158.71832 6.69528L158.71832 10.27528 156.73672 10.27528 156.73672 3.12888zM162.5432 10.2752L164.5112 10.2752 164.5112 3.1288 162.5432 3.1288 162.5432 10.2752zM163.5136 2.1592C163.1936 2.1592 162.928 2.0568 162.7144 1.8512 162.4992 1.6472 162.3928 1.3896 162.3928 1.08 162.3928.7696 162.4992.5128 162.7144.308 162.928.1024 163.1936 0 163.5136 0 163.832 0 164.1008.1024 164.3184.308 164.5376.5128 164.648.7696 164.648 1.08 164.648 1.3896 164.5376 1.6472 164.3184 1.8512 164.1008 2.0568 163.832 2.1592 163.5136 2.1592zM169.00704 9.05936C169.44384 9.05936 169.81024 8.94656 170.10624 8.72256 170.40224 8.49696 170.55104 8.18256 170.55104 7.77936L170.55104 7.17376 169.78544 7.17376C169.21104 7.17376 168.76464 7.24736 168.44624 7.39376 168.12704 7.54096 167.96784 7.80656 167.96784 8.19216 167.96784 8.45856 168.05024 8.66896 168.21424 8.82496 168.37824 8.98096 168.64224 9.05936 169.00704 9.05936M168.41904 10.42576C168.09104 10.42576 167.78384 10.38416 167.49584 10.30256 167.20944 10.22016 166.95664 10.09296 166.73824 9.92016 166.51984 9.74736 166.34624 9.52656 166.21904 9.25696 166.09104 8.98896 166.02784 8.66736 166.02784 8.29376 166.02784 7.87536 166.11904 7.52016 166.30144 7.22816 166.48384 6.93696 166.73824 6.70016 167.06624 6.51776 167.39344 6.33536 167.78624 6.20416 168.24144 6.12176 168.69664 6.03936 169.19744 5.99856 169.74384 5.99856L170.55104 5.99856 170.55104 5.71136C170.55104 5.28336 170.47024 4.95776 170.31104 4.73456 170.15184 4.51136 169.84384 4.40016 169.38944 4.40016 168.99744 4.40016 168.70864 4.49136 168.52144 4.67376 168.33424 4.85536 168.21904 5.10176 168.17264 5.41056L166.30144 5.41056C166.32784 4.99216 166.43024 4.62736 166.60864 4.31856 166.78624 4.00816 167.01664 3.75296 167.29904 3.55296 167.58064 3.35296 167.91104 3.20416 168.28944 3.10896 168.66624 3.01296 169.07424 2.96576 169.51264 2.96576 169.94944 2.96576 170.35024 3.01296 170.71504 3.10896 171.07824 3.20416 171.39744 3.35696 171.67024 3.56576 171.93504 3.77616 172.13984 4.04976 172.28624 4.38576 172.43104 4.72336 172.50464 5.13296 172.50464 5.61616L172.50464 10.27536 170.57824 10.27536 170.57824 9.41456C170.36784 9.70656 170.09664 9.94736 169.76464 10.13856 169.43184 10.33056 168.98384 10.42576 168.41904 10.42576M174.36256 3.12888L176.34416 3.12888 176.34416 4.26328C176.52576 3.90808 176.80896 3.60248 177.19056 3.34728 177.57376 3.09368 178.06576 2.96568 178.66656 2.96568 179.02176 2.96568 179.34496 3.02008 179.63696 3.12888 179.92816 3.23848 180.18256 3.40248 180.40256 3.62088 180.61216 3.84888 180.77536 4.13848 180.89296 4.48808 181.01216 4.83928 181.07136 5.25128 181.07136 5.72488L181.07136 10.27528 179.09056 10.27528 179.09056 6.01208C179.09056 5.52008 178.98896 5.15848 178.78896 4.92648 178.58896 4.69368 178.27056 4.57768 177.83296 4.57768 177.40496 4.57768 177.04896 4.70808 176.76736 4.96728 176.48496 5.22648 176.34416 5.62088 176.34416 6.14888L176.34416 10.27528 174.36256 10.27528 174.36256 3.12888zM95.50704 27.45072C95.91664 27.45072 96.28784 27.37312 96.62064 27.21792 96.95344 27.06352 97.23744 26.84432 97.47424 26.56272 97.70224 26.28912 97.87984 25.95152 98.00704 25.55072 98.13504 25.15072 98.19824 24.70432 98.19824 24.21232L98.19824 24.10272C98.19824 23.62992 98.13744 23.19712 98.01424 22.80432 97.89104 22.41392 97.71584 22.07552 97.48784 21.79392 97.25104 21.51152 96.96384 21.29232 96.62704 21.13712 96.29024 20.98352 95.90704 20.90592 95.47984 20.90592 95.05104 20.90592 94.67104 20.98112 94.33904 21.13072 94.00624 21.28112 93.72224 21.49312 93.48464 21.76672 93.24784 22.04912 93.06784 22.38752 92.94544 22.78432 92.82224 23.18112 92.76064 23.62432 92.76064 24.11632L92.76064 24.22592C92.76064 24.72672 92.82784 25.17552 92.96464 25.57152 93.10224 25.96752 93.29344 26.30192 93.53904 26.57552 93.77584 26.85872 94.06224 27.07472 94.40064 27.22432 94.73744 27.37552 95.10624 27.45072 95.50704 27.45072M95.46624 29.21312C94.70064 29.21312 94.00864 29.08752 93.38944 28.83712 92.76944 28.58672 92.24544 28.23872 91.81824 27.79152 91.38064 27.35472 91.04384 26.83152 90.80704 26.22032 90.56944 25.60992 90.45184 24.94992 90.45184 24.23872L90.45184 24.12992C90.45184 23.40192 90.57664 22.73232 90.82624 22.12192 91.07824 21.51152 91.43024 20.98752 91.88624 20.55072 92.33184 20.11312 92.86064 19.77152 93.47104 19.52592 94.08144 19.27952 94.75104 19.15712 95.47984 19.15712 96.21824 19.15712 96.89344 19.27552 97.50864 19.51232 98.12384 19.74912 98.65424 20.08112 99.10064 20.50992 99.53744 20.94672 99.88144 21.46512 100.13184 22.06672 100.38304 22.66752 100.50784 23.33712 100.50784 24.07552L100.50784 24.18432C100.50784 24.91392 100.38704 25.58512 100.14544 26.20112 99.90464 26.81552 99.56464 27.34592 99.12784 27.79152 98.69024 28.23872 98.16224 28.58672 97.54304 28.83712 96.92384 29.08752 96.23104 29.21312 95.46624 29.21312M105.768 27.66912C106.316 27.66912 106.7336 27.48912 107.0256 27.12832 107.3176 26.76672 107.4624 26.23472 107.4624 25.53072L107.4624 25.42032C107.4624 24.68992 107.304 24.14672 106.9848 23.79072 106.6656 23.43472 106.2552 23.25552 105.7544 23.25552 105.2352 23.25552 104.8144 23.43552 104.4904 23.79712 104.1672 24.15792 104.0064 24.69952 104.0064 25.42032L104.0064 25.53072C104.0064 26.25312 104.1624 26.78912 104.4776 27.14112 104.7912 27.49312 105.2216 27.66912 105.768 27.66912zM102.0928 21.91632L104.0744 21.91632 104.0744 23.03712C104.2744 22.69152 104.5736 22.38992 104.9696 22.13552 105.3656 21.88112 105.8272 21.75312 106.356 21.75312 106.7928 21.75312 107.2008 21.83232 107.5792 21.99152 107.956 22.15152 108.2864 22.38592 108.5696 22.69552 108.8512 23.00592 109.0728 23.38752 109.2328 23.84272 109.3904 24.29952 109.4712 24.82272 109.4712 25.41392L109.4712 25.52432C109.4712 26.11632 109.3904 26.64032 109.2328 27.09552 109.0728 27.55072 108.856 27.93392 108.5832 28.24272 108.3008 28.56192 107.9704 28.80352 107.592 28.96672 107.2144 29.13152 106.8024 29.21312 106.356 29.21312 105.8 29.21312 105.3264 29.09232 104.9352 28.85152 104.5432 28.60992 104.256 28.31632 104.0744 27.96912L104.0744 31.49472 102.0928 31.49472 102.0928 21.91632zM115.75624 24.71792C115.71944 24.17152 115.56984 23.76832 115.30584 23.50832 115.04104 23.24912 114.67304 23.11872 114.19864 23.11872 113.75224 23.11872 113.38584 23.25872 113.09864 23.53552 112.81144 23.81392 112.63224 24.20752 112.55944 24.71792L115.75624 24.71792zM114.25304 29.21312C113.71544 29.21312 113.21944 29.13152 112.76424 28.96672 112.30744 28.80352 111.91704 28.56192 111.58904 28.24272 111.25144 27.93392 110.98984 27.55472 110.80344 27.10912 110.61624 26.66272 110.52344 26.15232 110.52344 25.57872L110.52344 25.46912C110.52344 24.90432 110.61624 24.39392 110.80344 23.93872 110.98984 23.48352 111.25144 23.09152 111.58904 22.76432 111.91704 22.44512 112.30424 22.19712 112.74984 22.01872 113.19624 21.84112 113.67864 21.75312 114.19864 21.75312 114.66344 21.75312 115.10584 21.82272 115.52424 21.96512 115.94184 22.10592 116.31144 22.32192 116.63064 22.61392 116.94904 22.90432 117.20504 23.28112 117.39624 23.74032 117.58744 24.20112 117.68264 24.74992 117.68264 25.38752L117.68264 25.93392 112.53144 25.93392C112.55944 26.53472 112.72504 26.99712 113.03064 27.32032 113.33624 27.64432 113.76184 27.80592 114.30744 27.80592 114.77304 27.80592 115.12104 27.71552 115.35304 27.53232 115.58584 27.35072 115.73384 27.10912 115.79784 26.80832L117.66904 26.80832C117.55064 27.58272 117.19784 28.17712 116.61064 28.59152 116.02264 29.00592 115.23704 29.21312 114.25304 29.21312zM119.14536 21.9164L121.12696 21.9164 121.12696 23.0508C121.30856 22.6956 121.59096 22.39 121.97256 22.1348 122.35576 21.8812 122.84776 21.7532 123.44936 21.7532 123.80456 21.7532 124.12776 21.8076 124.41896 21.9164 124.71096 22.026 124.96456 22.19 125.18456 22.4084 125.39416 22.6364 125.55736 22.926 125.67576 23.2756 125.79496 23.6268 125.85336 24.0388 125.85336 24.5132L125.85336 29.0628 123.87256 29.0628 123.87256 24.7996C123.87256 24.3076 123.77176 23.946 123.57176 23.714 123.37176 23.4812 123.05336 23.3652 122.61496 23.3652 122.18776 23.3652 121.83176 23.4956 121.54936 23.7548 121.26696 24.014 121.12696 24.4084 121.12696 24.9364L121.12696 29.0628 119.14536 29.0628 119.14536 21.9164zM131.30552 29.21288C130.63112 29.21288 130.04952 29.13768 129.55672 28.98808 129.06472 28.83768 128.65512 28.62088 128.32632 28.33928 127.99912 28.05608 127.74872 27.71928 127.57592 27.32728 127.40232 26.93608 127.30232 26.49448 127.27512 26.00248L129.39272 26.00248C129.42072 26.22088 129.46552 26.42808 129.52952 26.62328 129.59272 26.81928 129.69752 26.98648 129.84392 27.12248 129.98872 27.26808 130.17832 27.38488 130.41112 27.47048 130.64312 27.55768 130.94152 27.60088 131.30552 27.60088 131.79752 27.60088 132.18872 27.48008 132.48152 27.23848 132.77192 26.99608 132.91832 26.68328 132.91832 26.30008 132.91832 26.10808 132.88872 25.94488 132.82952 25.80728 132.77032 25.67048 132.67192 25.55208 132.53512 25.45128 132.38952 25.36008 132.19832 25.28008 131.96072 25.21208 131.72392 25.14328 131.42792 25.08168 131.07352 25.02728 130.44552 24.94568 129.90952 24.83368 129.46792 24.69288 129.02552 24.55128 128.66392 24.36248 128.38232 24.12568 128.08952 23.89768 127.87832 23.61608 127.74632 23.27928 127.61432 22.94328 127.54792 22.53768 127.54792 22.06408 127.54792 21.64648 127.63192 21.25928 127.80072 20.90408 127.96872 20.54888 128.20872 20.23928 128.51912 19.97608 128.82792 19.72088 129.20152 19.52088 129.63912 19.37448 130.07592 19.22968 130.56312 19.15688 131.10072 19.15688 132.20312 19.15688 133.06632 19.39848 133.68952 19.88408 134.31432 20.36968 134.67192 21.09688 134.76232 22.06648L132.72632 22.06648C132.66232 21.62968 132.49432 21.30408 132.22232 21.09048 131.94792 20.87608 131.57432 20.76888 131.10072 20.76888 130.60872 20.76888 130.24152 20.87128 130.00072 21.07688 129.75912 21.28248 129.63912 21.54968 129.63912 21.87848 129.63912 22.05128 129.66392 22.20408 129.71432 22.33688 129.76392 22.46888 129.85672 22.58008 129.99352 22.67208 130.12232 22.77208 130.30312 22.85928 130.54072 22.93208 130.77752 23.00488 131.08232 23.06888 131.45592 23.12408 132.04792 23.19688 132.56792 23.29928 133.01432 23.43208 133.45992 23.56328 133.83352 23.73928 134.13352 23.95928 134.43512 24.18648 134.65992 24.47448 134.81032 24.82008 134.96072 25.16728 135.03592 25.59128 135.03592 26.09288 135.03592 26.53048 134.94952 26.93928 134.77592 27.31768 134.60312 27.69688 134.35672 28.02328 134.03912 28.29608 133.71992 28.57928 133.32792 28.80248 132.86312 28.96648 132.39912 29.13128 131.87992 29.21288 131.30552 29.21288M139.23048 29.1996C138.47368 29.1996 137.90008 29.01 137.50888 28.6324 137.11688 28.2548 136.92088 27.6916 136.92088 26.9444L136.92088 23.3244 136.00648 23.3244 136.00648 21.9164 136.92088 21.9164 136.92088 20.3732 138.88888 20.3732 138.88888 21.9164 140.39208 21.9164 140.39208 23.3244 138.88888 23.3244 138.88888 26.7668C138.88888 27.0492 138.95448 27.2612 139.08648 27.402 139.21848 27.5444 139.41688 27.614 139.68088 27.614 139.82648 27.614 139.96168 27.6036 140.08408 27.5804 140.20808 27.5572 140.32328 27.5236 140.43288 27.4772L140.43288 29.0076C140.29608 29.0532 140.12728 29.0972 139.92728 29.138 139.72648 29.1788 139.49448 29.1996 139.23048 29.1996M141.9352 21.9164L143.9176 21.9164 143.9176 23.2836C144.144 22.8004 144.4408 22.4364 144.8056 22.19 145.1688 21.9444 145.6424 21.8164 146.2256 21.8076L146.2256 23.6516C145.488 23.6428 144.9184 23.7748 144.5176 24.0484 144.1176 24.322 143.9176 24.7996 143.9176 25.4828L143.9176 29.0628 141.9352 29.0628 141.9352 21.9164zM152.34768 24.71792C152.31088 24.17152 152.16128 23.76832 151.89648 23.50832 151.63168 23.24912 151.26368 23.11872 150.79008 23.11872 150.34368 23.11872 149.97648 23.25872 149.69008 23.53552 149.40288 23.81392 149.22288 24.20752 149.15008 24.71792L152.34768 24.71792zM150.84368 29.21312C150.30688 29.21312 149.81088 29.13152 149.35568 28.96672 148.89888 28.80352 148.50768 28.56192 148.18048 28.24272 147.84208 27.93392 147.58048 27.55472 147.39408 27.10912 147.20688 26.66272 147.11408 26.15232 147.11408 25.57872L147.11408 25.46912C147.11408 24.90432 147.20688 24.39392 147.39408 23.93872 147.58048 23.48352 147.84208 23.09152 148.18048 22.76432 148.50768 22.44512 148.89568 22.19712 149.34128 22.01872 149.78768 21.84112 150.27008 21.75312 150.79008 21.75312 151.25408 21.75312 151.69648 21.82272 152.11488 21.96512 152.53328 22.10592 152.90288 22.32192 153.22208 22.61392 153.53968 22.90432 153.79568 23.28112 153.98768 23.74032 154.17808 24.20112 154.27408 24.74992 154.27408 25.38752L154.27408 25.93392 149.12288 25.93392C149.15008 26.53472 149.31648 26.99712 149.62128 27.32032 149.92688 27.64432 150.35248 27.80592 150.89888 27.80592 151.36368 27.80592 151.71168 27.71552 151.94368 27.53232 152.17648 27.35072 152.32448 27.10912 152.38848 26.80832L154.26048 26.80832C154.14128 27.58272 153.78848 28.17712 153.20128 28.59152 152.61328 29.00592 151.82848 29.21312 150.84368 29.21312zM160.53208 24.71792C160.49528 24.17152 160.34568 23.76832 160.08168 23.50832 159.81608 23.24912 159.44808 23.11872 158.97448 23.11872 158.52808 23.11872 158.16088 23.25872 157.87448 23.53552 157.58728 23.81392 157.40728 24.20752 157.33448 24.71792L160.53208 24.71792zM159.02808 29.21312C158.49128 29.21312 157.99528 29.13152 157.54008 28.96672 157.08328 28.80352 156.69208 28.56192 156.36488 28.24272 156.02728 27.93392 155.76488 27.55472 155.57848 27.10912 155.39128 26.66272 155.29928 26.15232 155.29928 25.57872L155.29928 25.46912C155.29928 24.90432 155.39128 24.39392 155.57848 23.93872 155.76488 23.48352 156.02728 23.09152 156.36488 22.76432 156.69208 22.44512 157.08008 22.19712 157.52568 22.01872 157.97208 21.84112 158.45448 21.75312 158.97448 21.75312 159.43928 21.75312 159.88088 21.82272 160.29928 21.96512 160.71768 22.10592 161.08728 22.32192 161.40648 22.61392 161.72488 22.90432 161.98008 23.28112 162.17208 23.74032 162.36248 24.20112 162.45848 24.74992 162.45848 25.38752L162.45848 25.93392 157.30728 25.93392C157.33448 26.53472 157.50088 26.99712 157.80568 27.32032 158.11128 27.64432 158.53768 27.80592 159.08328 27.80592 159.54808 27.80592 159.89688 27.71552 160.12808 27.53232 160.36088 27.35072 160.50888 27.10912 160.57288 26.80832L162.44488 26.80832C162.32568 27.58272 161.97368 28.17712 161.38568 28.59152 160.79848 29.00592 160.01288 29.21312 159.02808 29.21312zM166.52968 29.1996C165.77368 29.1996 165.20008 29.01 164.80888 28.6324 164.41608 28.2548 164.22008 27.6916 164.22008 26.9444L164.22008 23.3244 163.30568 23.3244 163.30568 21.9164 164.22008 21.9164 164.22008 20.3732 166.18888 20.3732 166.18888 21.9164 167.69128 21.9164 167.69128 23.3244 166.18888 23.3244 166.18888 26.7668C166.18888 27.0492 166.25448 27.2612 166.38648 27.402 166.51768 27.5444 166.71608 27.614 166.98088 27.614 167.12648 27.614 167.26088 27.6036 167.38328 27.5804 167.50728 27.5572 167.62328 27.5236 167.73288 27.4772L167.73288 29.0076C167.59608 29.0532 167.42728 29.0972 167.22728 29.138 167.02568 29.1788 166.79448 29.1996 166.52968 29.1996" mask="url(#b)"/><polygon fill="#D73F3F" points="169.413 19.293 172.336 19.293 174.619 25.374 176.873 19.293 179.742 19.293 179.742 29.063 177.542 29.063 177.542 22.203 174.836 29.063 174.113 29.063 171.395 22.203 171.395 29.063 169.413 29.063" mask="url(#b)"/><path fill="#D73F3F" d="M184.29224 27.84688C184.72984 27.84688 185.09544 27.73408 185.39144 27.51008 185.68744 27.28448 185.83624 26.97008 185.83624 26.56688L185.83624 25.96128 185.07064 25.96128C184.49704 25.96128 184.05064 26.03488 183.73224 26.18128 183.41224 26.32848 183.25304 26.59408 183.25304 26.97968 183.25304 27.24608 183.33624 27.45648 183.49944 27.61248 183.66424 27.76848 183.92824 27.84688 184.29224 27.84688M183.70504 29.21328C183.37624 29.21328 183.06904 29.17168 182.78184 29.09008 182.49544 29.00768 182.24264 28.88048 182.02424 28.70768 181.80584 28.53488 181.63224 28.31408 181.50504 28.04448 181.37704 27.77648 181.31304 27.45488 181.31304 27.08128 181.31304 26.66288 181.40504 26.30768 181.58744 26.01568 181.76904 25.72448 182.02424 25.48768 182.35144 25.30528 182.67944 25.12288 183.07224 24.99168 183.52664 24.90928 183.98184 24.82688 184.48344 24.78608 185.02984 24.78608L185.83624 24.78608 185.83624 24.49888C185.83624 24.07088 185.75624 23.74528 185.59704 23.52208 185.43784 23.29888 185.12984 23.18768 184.67464 23.18768 184.28344 23.18768 183.99384 23.27888 183.80744 23.46128 183.62024 23.64288 183.50504 23.88928 183.45864 24.19808L181.58744 24.19808C181.61384 23.77968 181.71624 23.41488 181.89384 23.10608 182.07224 22.79568 182.30184 22.54048 182.58424 22.34048 182.86664 22.14048 183.19704 21.99168 183.57464 21.89648 183.95224 21.80048 184.36024 21.75328 184.79784 21.75328 185.23544 21.75328 185.63624 21.80048 186.00104 21.89648 186.36424 21.99168 186.68344 22.14448 186.95624 22.35328 187.22024 22.56368 187.42584 22.83728 187.57224 23.17328 187.71624 23.51088 187.78984 23.92048 187.78984 24.40368L187.78984 29.06288 185.86424 29.06288 185.86424 28.20208C185.65384 28.49408 185.38264 28.73488 185.05064 28.92608 184.71784 29.11808 184.26984 29.21328 183.70504 29.21328M193.32424 27.66912C193.87144 27.66912 194.28984 27.48912 194.58184 27.12832 194.87304 26.76672 195.01864 26.23472 195.01864 25.53072L195.01864 25.42032C195.01864 24.68992 194.85944 24.14672 194.54104 23.79072 194.22184 23.43472 193.81144 23.25552 193.31064 23.25552 192.79144 23.25552 192.37064 23.43552 192.04664 23.79712 191.72344 24.15792 191.56264 24.69952 191.56264 25.42032L191.56264 25.53072C191.56264 26.25312 191.71864 26.78912 192.03384 27.14112 192.34744 27.49312 192.77784 27.66912 193.32424 27.66912zM189.64904 21.91632L191.63064 21.91632 191.63064 23.03712C191.83064 22.69152 192.12904 22.38992 192.52504 22.13552 192.92184 21.88112 193.38344 21.75312 193.91224 21.75312 194.34904 21.75312 194.75704 21.83232 195.13544 21.99152 195.51224 22.15152 195.84264 22.38592 196.12584 22.69552 196.40744 23.00592 196.62824 23.38752 196.78824 23.84272 196.94664 24.29952 197.02744 24.82272 197.02744 25.41392L197.02744 25.52432C197.02744 26.11632 196.94664 26.64032 196.78824 27.09552 196.62824 27.55072 196.41224 27.93392 196.13944 28.24272 195.85704 28.56192 195.52664 28.80352 195.14824 28.96672 194.77064 29.13152 194.35864 29.21312 193.91224 29.21312 193.35624 29.21312 192.88184 29.09232 192.49144 28.85152 192.09944 28.60992 191.81224 28.31632 191.63064 27.96912L191.63064 31.49472 189.64904 31.49472 189.64904 21.91632z" mask="url(#b)"/><polygon fill="#D73F3F" points="94.151 39.802 91.514 39.802 91.514 38.08 99.015 38.08 99.015 39.802 96.378 39.802 96.378 47.85 94.151 47.85" mask="url(#b)"/><path fill="#D73F3F" d="M104.15312 43.50464C104.11632 42.95824 103.96592 42.55504 103.70192 42.29584 103.43712 42.03664 103.06912 41.90624 102.59552 41.90624 102.14832 41.90624 101.78192 42.04544 101.49552 42.32304 101.20752 42.60064 101.02832 42.99424 100.95552 43.50464L104.15312 43.50464zM102.64912 47.99984C102.11152 47.99984 101.61552 47.91824 101.16112 47.75424 100.70432 47.59024 100.31312 47.34864 99.98512 47.03024 99.64752 46.72144 99.38592 46.34224 99.19952 45.89584 99.01232 45.45024 98.91952 44.93904 98.91952 44.36544L98.91952 44.25584C98.91952 43.69104 99.01232 43.18144 99.19952 42.72544 99.38592 42.27024 99.64752 41.87904 99.98512 41.55104 100.31312 41.23184 100.70032 40.98384 101.14592 40.80624 101.59232 40.62864 102.07552 40.53984 102.59552 40.53984 103.05952 40.53984 103.50192 40.61024 103.92032 40.75264 104.33872 40.89264 104.70832 41.10944 105.02672 41.40064 105.34512 41.69184 105.60112 42.06784 105.79232 42.52704 105.98352 42.98784 106.07872 43.53664 106.07872 44.17504L106.07872 44.72144 100.92832 44.72144C100.95552 45.32144 101.12112 45.78464 101.42672 46.10784 101.73232 46.43104 102.15792 46.59264 102.70352 46.59264 103.16912 46.59264 103.51712 46.50224 103.74912 46.31984 103.98192 46.13744 104.12992 45.89584 104.19392 45.59584L106.06512 45.59584C105.94672 46.36944 105.59392 46.96384 105.00672 47.37904 104.41872 47.79264 103.63392 47.99984 102.64912 47.99984zM110.12424 46.63432C110.56104 46.63432 110.92744 46.52072 111.22344 46.29672 111.51944 46.07192 111.66824 45.75752 111.66824 45.35352L111.66824 44.74872 110.90264 44.74872C110.32824 44.74872 109.88184 44.82152 109.56344 44.96872 109.24424 45.11592 109.08504 45.38152 109.08504 45.76632 109.08504 46.03272 109.16744 46.24392 109.33144 46.39992 109.49544 46.55512 109.75944 46.63432 110.12424 46.63432M109.53624 47.99992C109.20824 47.99992 108.90104 47.95912 108.61384 47.87752 108.32664 47.79432 108.07384 47.66792 107.85544 47.49432 107.63704 47.32152 107.46344 47.10072 107.33624 46.83192 107.20824 46.56312 107.14504 46.24232 107.14504 45.86872 107.14504 45.45032 107.23624 45.09432 107.41864 44.80232 107.60104 44.51192 107.85544 44.27512 108.18344 44.09192 108.51064 43.91032 108.90344 43.77832 109.35864 43.69592 109.81384 43.61432 110.31464 43.57352 110.86104 43.57352L111.66824 43.57352 111.66824 43.28632C111.66824 42.85752 111.58744 42.53272 111.42824 42.30952 111.26904 42.08632 110.96104 41.97512 110.50664 41.97512 110.11464 41.97512 109.82584 42.06552 109.63864 42.24872 109.45144 42.42952 109.33624 42.67592 109.28984 42.98472L107.41864 42.98472C107.44504 42.56632 107.54744 42.20232 107.72584 41.89272 107.90344 41.58312 108.13384 41.32712 108.41624 41.12712 108.69784 40.92712 109.02824 40.77912 109.40664 40.68392 109.78344 40.58712 110.19144 40.53992 110.62984 40.53992 111.06664 40.53992 111.46744 40.58712 111.83224 40.68392 112.19544 40.77912 112.51464 40.93112 112.78744 41.14072 113.05224 41.35112 113.25704 41.62392 113.40344 41.95992 113.54824 42.29832 113.62184 42.70792 113.62184 43.19032L113.62184 47.85032 111.69544 47.85032 111.69544 46.98872C111.48504 47.28152 111.21384 47.52152 110.88184 47.71352 110.54904 47.90472 110.10104 47.99992 109.53624 47.99992M115.47968 40.70392L117.46128 40.70392 117.46128 41.79672C117.64288 41.45992 117.91808 41.16632 118.28768 40.91592 118.65648 40.66552 119.10928 40.53992 119.64688 40.53992 120.12128 40.53992 120.52848 40.64072 120.86928 40.84072 121.21168 41.04072 121.46848 41.35432 121.64208 41.78392 121.93328 41.34632 122.29328 41.02952 122.72128 40.83352 123.15008 40.63752 123.59088 40.53992 124.04688 40.53992 124.37488 40.53992 124.68288 40.59272 124.96928 40.69672 125.25648 40.80232 125.50848 40.96312 125.72768 41.18232 125.93648 41.41032 126.10048 41.69672 126.21968 42.04312 126.33808 42.38872 126.39648 42.79912 126.39648 43.27272L126.39648 47.85032 124.42928 47.85032 124.42928 43.48072C124.42928 43.01592 124.33088 42.67752 124.13488 42.46712 123.93888 42.25672 123.66368 42.15272 123.30848 42.15272 122.92608 42.15272 122.60048 42.27352 122.33088 42.51512 122.06288 42.75672 121.92928 43.12472 121.92928 43.61752L121.92928 47.85032 119.96208 47.85032 119.96208 43.48072C119.96208 43.01592 119.86208 42.67752 119.66048 42.46712 119.46048 42.25672 119.18688 42.15272 118.84048 42.15272 118.45888 42.15272 118.13248 42.27352 117.86368 42.51512 117.59568 42.75672 117.46128 43.12472 117.46128 43.61752L117.46128 47.85032 115.47968 47.85032 115.47968 40.70392zM37.02656 20.77496C37.02656 20.29096 37.12976 19.85896 37.33616 19.48616 37.54096 19.11176 37.81296 18.80696 38.15056 18.56376 38.48656 18.32136 38.86496 18.13736 39.28576 18.01336 39.70496 17.89016 40.12736 17.82776 40.55376 17.82776 40.97856 17.82776 41.40256 17.89016 41.82336 18.01336 42.24176 18.13736 42.62016 18.32136 42.95616 18.56376 43.29456 18.80696 43.56576 19.11176 43.77216 19.48616 43.97856 19.85896 44.08096 20.29096 44.08096 20.77496L44.08096 27.14696C44.08096 27.64136 43.97856 28.07496 43.77216 28.44216 43.56576 28.81096 43.29456 29.11416 42.95616 29.35736 42.62016 29.60136 42.24176 29.78616 41.82336 29.90856 41.40256 30.03176 40.97856 30.09336 40.55376 30.09336 40.12736 30.09336 39.70496 30.03176 39.28576 29.90856 38.86496 29.78616 38.48656 29.60136 38.15056 29.35736 37.81296 29.11416 37.54096 28.81096 37.33616 28.44216 37.12976 28.07496 37.02656 27.64136 37.02656 27.14696L37.02656 20.77496zM39.05136 27.15016C39.05136 27.56536 39.28256 27.87496 39.56576 28.07176 39.84736 28.27016 40.18096 28.37496 40.56576 28.37496 40.94896 28.37496 41.28416 28.27016 41.56656 28.07176 41.84736 27.87496 42.00816 27.56536 42.00816 27.15016L42.00816 20.77816C42.00816 20.36136 41.84736 20.05256 41.56656 19.85576 41.28416 19.65816 40.94896 19.52536 40.56576 19.52536 40.18096 19.52536 39.84736 19.65816 39.56576 19.85576 39.28256 20.05256 39.05136 20.36136 39.05136 20.77816L39.05136 27.15016z" mask="url(#b)"/><polygon fill="#D73F3F" points="33.379 17.815 33.379 22.99 30.152 22.99 30.152 17.815 28.387 17.815 28.387 30.1 30.152 30.1 30.152 24.923 33.379 24.923 33.379 30.1 35.278 30.1 35.278 17.815" mask="url(#b)"/><polygon fill="#D73F3F" points="52.431 17.815 45.426 17.815 45.426 19.622 48.015 19.622 47.985 30.1 49.847 30.1 49.847 19.622 52.431 19.622" mask="url(#b)"/><path fill="#D73F3F" d="M65.42344,28.7668 L79.67944,28.7668 L71.15544,19.1684 L62.66904,9.57 L54.18104,0.0004 L11.53944,0.0004 L20.02584,9.57 L5.73784,9.57 L14.22584,19.1684 L14.29144,19.2332 L0.00024,19.2332 L8.52184,28.8316 L17.01304,38.43 L25.50024,48.0004 L68.14184,48.0004 L59.65064,38.43 L59.58824,38.3364 L73.87864,38.3364 L65.42344,28.7668 Z M39.83944,39.9492 C30.31864,39.9492 22.60104,32.8084 22.60104,24.0012 C22.60104,15.1908 30.31864,8.05 39.83944,8.05 C49.36104,8.05 57.07944,15.1908 57.07944,24.0012 C57.07944,32.8084 49.36104,39.9492 39.83944,39.9492 Z" mask="url(#b)"/></g></svg>