<svg xmlns="http://www.w3.org/2000/svg" width="67" height="40" viewBox="0 0 67 40">
  <g fill="#D73F3F" fill-rule="evenodd">
    <path d="M30.8570086,17.3133318 C30.8570086,16.9099783 30.9430129,16.5499603 31.1150215,16.2392781 C31.2856967,15.9272626 31.5123747,15.6732499 31.7937221,15.4705731 C32.0737361,15.268563 32.3890852,15.115222 32.7397693,15.0118835 C33.0891201,14.9092117 33.4411377,14.8572091 33.7964888,14.8572091 C34.1505065,14.8572091 34.5038575,14.9092117 34.8545417,15.0118835 C35.2032258,15.115222 35.5185749,15.268563 35.7985889,15.4705731 C36.0806029,15.6732499 36.3066142,15.9272626 36.4786228,16.2392781 C36.6506314,16.5499603 36.735969,16.9099783 36.735969,17.3133318 L36.735969,22.6235972 C36.735969,23.0356178 36.6506314,23.3969691 36.4786228,23.7029844 C36.3066142,24.0103331 36.0806029,24.2630124 35.7985889,24.4656892 C35.5185749,24.6690327 35.2032258,24.8230404 34.8545417,24.9250455 C34.5038575,25.0277173 34.1505065,25.0790532 33.7964888,25.0790532 C33.4411377,25.0790532 33.0891201,25.0277173 32.7397693,24.9250455 C32.3890852,24.8230404 32.0737361,24.6690327 31.7937221,24.4656892 C31.5123747,24.2630124 31.2856967,24.0103331 31.1150215,23.7029844 C30.9430129,23.3969691 30.8570086,23.0356178 30.8570086,22.6235972 L30.8570086,17.3133318 Z M32.5444262,22.626264 C32.5444262,22.9722813 32.7371025,23.2302942 32.9731143,23.3943023 C33.2077927,23.5596439 33.4858066,23.6469816 33.8064893,23.6469816 C34.1258386,23.6469816 34.4051859,23.5596439 34.640531,23.3943023 C34.8745427,23.2302942 35.0085494,22.9722813 35.0085494,22.626264 L35.0085494,17.3159986 C35.0085494,16.9686479 34.8745427,16.7113017 34.640531,16.5472935 C34.4051859,16.3826186 34.1258386,16.2719464 33.8064893,16.2719464 C33.4858066,16.2719464 33.2077927,16.3826186 32.9731143,16.5472935 C32.7371025,16.7113017 32.5444262,16.9686479 32.5444262,17.3159986 L32.5444262,22.626264 Z"/>
    <polygon points="27.817 14.847 27.817 19.16 25.128 19.16 25.128 14.847 23.657 14.847 23.657 25.085 25.128 25.085 25.128 20.77 27.817 20.77 27.817 25.085 29.4 25.085 29.4 14.847"/>
    <polygon points="43.695 14.847 37.857 14.847 37.857 16.352 40.015 16.352 39.989 25.085 41.541 25.085 41.541 16.352 43.695 16.352"/>
    <path d="M54.5222578,23.9735313 L66.4028515,23.9735313 L59.2991632,15.9744649 L52.2268098,7.97539853 L45.153123,0.000333349992 L9.61668055,0.000333349992 L16.689034,7.97539853 L4.78177228,7.97539853 L11.8554591,15.9744649 L11.9101285,16.0284676 L0.000200009994,16.0284676 L7.10188821,24.027534 L14.1782418,32.0266004 L21.2512619,40.0023323 L56.7877044,40.0023323 L49.7113507,32.0266004 L49.6593481,31.9485965 L61.5686099,31.9485965 L54.5222578,23.9735313 Z M33.2011924,33.2926636 C25.2667959,33.2926636 18.8351412,27.3416996 18.8351412,20.0019995 C18.8351412,12.6596326 25.2667959,6.70866857 33.2011924,6.70866857 C41.1362556,6.70866857 47.568577,12.6596326 47.568577,20.0019995 C47.568577,27.3416996 41.1362556,33.2926636 33.2011924,33.2926636 Z"/>
  </g>
</svg>
