<svg xmlns="http://www.w3.org/2000/svg" width="18" height="18" viewBox="0 0 18 18">
  <path fill="#D73F3F" d="M1234.86449,91.3207547 L1234.05146,91.3207547 L1233.76329,91.0428816 C1234.77187,89.8696398 1235.37907,88.3464837 1235.37907,86.6895369 C1235.37907,82.9948542 1232.38422,80 1228.68954,80 C1224.99485,80 1222,82.9948542 1222,86.6895369 C1222,90.3842196 1224.99485,93.3790738 1228.68954,93.3790738 C1230.34648,93.3790738 1231.86964,92.7718696 1233.04288,91.7632933 L1233.32075,92.051458 L1233.32075,92.864494 L1238.46655,98 L1240,96.4665523 L1234.86449,91.3207547 Z M1228.68954,91.3207547 C1226.12693,91.3207547 1224.05832,89.2521441 1224.05832,86.6895369 C1224.05832,84.1269297 1226.12693,82.058319 1228.68954,82.058319 C1231.25214,82.058319 1233.32075,84.1269297 1233.32075,86.6895369 C1233.32075,89.2521441 1231.25214,91.3207547 1228.68954,91.3207547 Z" transform="translate(-1222 -80)"/>
</svg>
