<svg xmlns="http://www.w3.org/2000/svg" width="14" height="14" viewBox="0 0 14 14">
  <g fill="#D73F3F" fill-rule="evenodd">
    <path d="M7.01561782,0.0277255446 C5.11890891,0.0277255446 4.88104752,0.0357651485 4.13616436,0.0697532673 C3.39277822,0.103658218 2.88511881,0.221729505 2.44086139,0.394386931 C1.98163366,0.572838416 1.59212871,0.811642376 1.20387129,1.1998998 C0.815586139,1.58818495 0.576809901,1.97766218 0.398330693,2.4368899 C0.225673267,2.88114733 0.107629703,3.38880673 0.0736970297,4.13219287 C0.0397089109,4.87710376 0.0316970297,5.1149097 0.0316970297,7.01164634 C0.0316970297,8.90838297 0.0397089109,9.14621663 0.0736970297,9.89112752 C0.107629703,10.6344859 0.225673267,11.1421731 0.398330693,11.5864028 C0.576809901,12.0456305 0.815586139,12.4351354 1.20387129,12.8233929 C1.59212871,13.211678 1.98163366,13.4504543 2.44086139,13.6289612 C2.88511881,13.8015909 3.39277822,13.9196622 4.13616436,13.9535949 C4.88104752,13.9875552 5.11890891,13.9955949 7.01561782,13.9955949 C8.91235446,13.9955949 9.1501604,13.9875552 9.89507129,13.9535949 C10.6384574,13.9196622 11.1461168,13.8015909 11.5903743,13.6289612 C12.0496297,13.4504543 12.4391069,13.211678 12.8273644,12.8233929 C13.2156495,12.4351354 13.4544257,12.0456582 13.632905,11.5864028 C13.8055624,11.1421731 13.9236337,10.6344859 13.9575386,9.89112752 C13.9915267,9.14621663 13.9995663,8.90838297 13.9995663,7.01164634 C13.9995663,5.11493743 13.9915267,4.87710376 13.9575386,4.13219287 C13.9236337,3.38880673 13.8055624,2.88114733 13.632905,2.4368899 C13.4544257,1.97766218 13.2156495,1.58818495 12.8273644,1.1998998 C12.4391069,0.811642376 12.0496297,0.572838416 11.5903743,0.394386931 C11.1461168,0.221729505 10.6384574,0.103658218 9.89507129,0.0697532673 C9.1501604,0.0357651485 8.91235446,0.0277255446 7.01561782,0.0277255446 M7.01561782,1.2860899 C8.88041782,1.2860899 9.10128515,1.29318693 9.83771287,1.32678693 C10.5186396,1.35786416 10.8884337,1.47163842 11.1345287,1.56728198 C11.4605208,1.69397505 11.693198,1.84531366 11.9375743,2.0896899 C12.1819505,2.33409386 12.3332891,2.56674337 12.4600099,2.89273545 C12.5556257,3.1388305 12.6694,3.50862455 12.7004772,4.18955129 C12.7340495,4.92597901 12.7411743,5.14687406 12.7411743,7.01164634 C12.7411743,8.87644634 12.7340495,9.09734139 12.7004772,9.83374139 C12.6694,10.5146958 12.5556257,10.8844899 12.4600099,11.130585 C12.3332891,11.4565493 12.1819505,11.6892265 11.9375743,11.9336028 C11.693198,12.1780067 11.4605208,12.3293453 11.1345287,12.4560384 C10.8884337,12.5516543 10.5186396,12.6654562 9.83771287,12.6965057 C9.10139604,12.7301057 8.88055644,12.7372305 7.01561782,12.7372305 C5.15067921,12.7372305 4.9298396,12.7301057 4.19352277,12.6965057 C3.51259604,12.6654562 3.14277426,12.5516543 2.89667921,12.4560384 C2.57071485,12.3293453 2.33803762,12.1780067 2.09366139,11.9336028 C1.84928515,11.6892265 1.69791881,11.4565493 1.57122574,11.130585 C1.4756099,10.8844899 1.36183564,10.5146958 1.33075842,9.83376911 C1.29715842,9.09734139 1.29006139,8.87644634 1.29006139,7.01164634 C1.29006139,5.14687406 1.29715842,4.92597901 1.33075842,4.18955129 C1.36183564,3.50862455 1.4756099,3.1388305 1.57122574,2.89273545 C1.69791881,2.56674337 1.84928515,2.33409386 2.09366139,2.08971762 C2.33803762,1.84531366 2.57071485,1.69397505 2.89667921,1.56728198 C3.14277426,1.47163842 3.51259604,1.35786416 4.19349505,1.32678693 C4.9299505,1.29318693 5.15081782,1.2860899 7.01561782,1.2860899"/>
    <path d="M7.01561782 9.33963842C5.72991881 9.33963842 4.68762574 8.29734535 4.68762574 7.01164634 4.68762574 5.72594733 5.72991881 4.68368198 7.01561782 4.68368198 8.30131683 4.68368198 9.3436099 5.72594733 9.3436099 7.01164634 9.3436099 8.29734535 8.30131683 9.33963842 7.01561782 9.33963842M7.01561782 3.42531762C5.03493663 3.42531762 3.42926139 5.03096515 3.42926139 7.01164634 3.42926139 8.99235525 5.03493663 10.5980028 7.01561782 10.5980028 8.99629901 10.5980028 10.6019465 8.99235525 10.6019465 7.01164634 10.6019465 5.03096515 8.99629901 3.42531762 7.01561782 3.42531762M11.5817275 3.28362099C11.5817275 3.7464804 11.2065275 4.1216804 10.7436681 4.1216804 10.2808087 4.1216804 9.90558099 3.7464804 9.90558099 3.28362099 9.90558099 2.82076158 10.2808087 2.44556158 10.7436681 2.44556158 11.2065275 2.44556158 11.5817275 2.82076158 11.5817275 3.28362099"/>
  </g>
</svg>
