<svg xmlns="http://www.w3.org/2000/svg" width="15" height="14" viewBox="0 0 15 14">
  <path fill="#D73F3F" fill-rule="evenodd" d="M37.3712841,0 L24.9166634,0 C24.4898888,0 24.144,0.345888833 24.144,0.772663407 L24.144,13.2272841 C24.144,13.6540063 24.4898888,14 24.9166634,14 L31.6218396,14 L31.6218396,8.5784522 L29.7973468,8.5784522 L29.7973468,6.46556136 L31.6218396,6.46556136 L31.6218396,4.90738305 C31.6218396,3.09915135 32.726229,2.11451694 34.3393278,2.11451694 C35.1120436,2.11451694 35.776125,2.17200772 35.9696318,2.19771071 L35.9696318,4.08745761 L34.8508697,4.08798217 C33.9736109,4.08798217 33.8037089,4.50484273 33.8037089,5.11657393 L33.8037089,6.46556136 L35.8959849,6.46556136 L35.6235856,8.5784522 L33.8037089,8.5784522 L33.8037089,14 L37.3712841,14 C37.7980063,14 38.1439475,13.6540063 38.1439475,13.2272841 L38.1439475,0.772663407 C38.1439475,0.345888833 37.7980063,0 37.3712841,0" transform="translate(-24)"/>
</svg>
