<svg xmlns="http://www.w3.org/2000/svg" width="20" height="14" viewBox="0 0 20 14" xmlns:xlink="http://www.w3.org/1999/xlink">
  <defs>
    <polygon id="a" points=".007 .004 19.712 .004 19.712 13.888 .007 13.888"/>
  </defs>
  <g fill="none" fill-rule="evenodd" transform="translate(.144)">
    <mask id="b" fill="white">
      <use xlink:href="#a"/>
    </mask>
    <path fill="#D73F3F" d="M19.300064,2.168656 C19.073376,1.314992 18.40552,0.642768 17.557344,0.414624 C16.020144,0 9.856,0 9.856,0 C9.856,0 3.691856,0 2.154656,0.414624 C1.306592,0.642768 0.638624,1.314992 0.411936,2.168656 C0,3.715824 0,6.944 0,6.944 C0,6.944 0,10.172064 0.411936,11.719456 C0.638624,12.573008 1.306592,13.245232 2.154656,13.473488 C3.691856,13.888 9.856,13.888 9.856,13.888 C9.856,13.888 16.020144,13.888 17.557344,13.473488 C18.40552,13.245232 19.073376,12.573008 19.300064,11.719456 C19.712,10.172064 19.712,6.944 19.712,6.944 C19.712,6.944 19.712,3.715824 19.300064,2.168656" mask="url(#b)"/>
    <polyline fill="#FFFFFF" points="7.84 9.875 12.992 6.944 7.84 4.013 7.84 9.875"/>
  </g>
</svg>
