<?xml version="1.0" encoding="utf-8"?>
<!-- Generator: Adobe Illustrator 17.1.0, SVG Export Plug-In . SVG Version: 6.00 Build 0)  -->
<!DOCTYPE svg PUBLIC "-//W3C//DTD SVG 1.1//EN" "http://www.w3.org/Graphics/SVG/1.1/DTD/svg11.dtd">
<svg version="1.1" id="Layer_1" xmlns="http://www.w3.org/2000/svg" xmlns:xlink="http://www.w3.org/1999/xlink" x="0px" y="0px" width="512px" height="512px" viewBox="0 0 512 512" enable-background="new 0 0 512 512" xml:space="preserve">

<path d="M217.4,409.4C202.1,424.6,181.8,433,160,433s-42.1-8.4-57.4-23.6c-31.6-31.6-31.6-83.1,0-114.7l73.4-73.4L130.7,176
	l-73.4,73.4C0.8,306,0.8,398,57.4,454.6C84.7,482,121.1,497,160,497s75.3-15,102.6-42.4l73.4-73.4L290.7,336L217.4,409.4z
	 M454.6,57.4C427.3,30,390.9,15,352,15s-75.3,15-102.6,42.4L176,130.7l45.3,45.3l73.4-73.4C309.9,87.4,330.2,79,352,79
	s42.1,8.4,57.4,23.6c31.6,31.6,31.6,83.1,0,114.7L336,290.7l45.3,45.3l73.4-73.4C511.2,206,511.2,114,454.6,57.4z M374.6,182.6
	l-45.3-45.3l-192,192l45.3,45.3L374.6,182.6z"/>
</svg>