<?xml version="1.0" encoding="utf-8"?>
<!-- Generator: Adobe Illustrator 19.1.0, SVG Export Plug-In . SVG Version: 6.00 Build 0)  -->
<svg version="1.1" id="Layer_1" xmlns="http://www.w3.org/2000/svg" xmlns:xlink="http://www.w3.org/1999/xlink" x="0px" y="0px"
	 viewBox="0 0 27.3 26" style="enable-background:new 0 0 27.3 26;" xml:space="preserve">
<style type="text/css">
	.st0{fill:none; stroke: #68707F;}
	.st1{fill:none; stroke: #68707F;}		
</style>
<g>
	<path class="st0" d="M13.9,14.2l1.4,8.6c4.7-0.5,6.5-2.3,6.5-2.3l0.7-9l0.1,0l-9.9-7.7l-9.2,7.8l0.1-0.1l0.5,9c0,0,2,1.8,6.5,2.3
		l1.2-8.6"/>
	<path class="st0" d="M15.9,13.6"/>
</g>
<rect x="11.8" y="7.7" class="st1" width="2.2" height="3.1"/>
<polygon class="st1" points="22.6,11.7 24.2,12.3 24.6,11.7 12.8,1.1 1.4,11.8 2.3,12.5 3.5,11.8 13,4.3 "/>
<path class="st1" d="M10.1,13.5l0.2,9.2c0.8,0.1,1.6,0.2,2.6,0.2c0.9,0,1.6-0.1,2.3-0.1l0.5-9.2C14.1,13.6,11.6,13.6,10.1,13.5z"/>
</svg>
