<?xml version="1.0" encoding="utf-8"?>
<!-- Generator: Adobe Illustrator 19.1.0, SVG Export Plug-In . SVG Version: 6.00 Build 0)  -->
<svg version="1.1" id="Layer_1" xmlns="http://www.w3.org/2000/svg" xmlns:xlink="http://www.w3.org/1999/xlink" x="0px" y="0px"
	 viewBox="-57 60 27.3 26" style="enable-background:new -57 60 27.3 26;" xml:space="preserve">
<style type="text/css">
	.st0{fill:none; stroke: #68707F;}
	.st1{fill:none; stroke: #68707F;}
	.st2{fill:none;stroke: #68707F;stroke-miterlimit:10;} 
</style>
<g>
	<path class="st0" d="M-41.6,75.1"/>
</g>
<g>
	<path class="st0" d="M-46.2,78.7l1.3-0.5c-0.4-0.4-1-0.5-1.3-0.7V78.7z"/>
	<path class="st1" d="M-35,67c-1.4-1.3-2.9-1.8-4-2l-0.3,0.4c1,0.8,2.4,1.8,3.7,2.4L-35,67z"/>
	<path class="st0" d="M-39.3,65.4l-6.9,9.5v2.6c0.4,0.2,1,0.4,1.3,0.7l1.8-0.7l7.3-9.6C-36.8,67.1-38.2,66.1-39.3,65.4z"/>
	<path class="st0" d="M-34.4,66.1c0,0,1.1-1.5-1-2.6c-2.1-1.1-2.7,0-2.7,0l-1.1,1.5c1,0.4,2.5,0.9,4,2L-34.4,66.1z"/>
</g>
<path class="st2" d="M-43.4,67.9l-5.2,0.3l-4,0.2c0,0,1.1,13.4,1.8,13.7c0.7,0.4,15.1-1.2,15.1-1.2s-1-5.7-1-7.1"/>
</svg>
