<?xml version="1.0" encoding="utf-8"?>
<!-- Generator: Adobe Illustrator 19.1.0, SVG Export Plug-In . SVG Version: 6.00 Build 0)  -->
<svg version="1.1" id="Layer_1" xmlns="http://www.w3.org/2000/svg" xmlns:xlink="http://www.w3.org/1999/xlink" x="0px" y="0px"
	 viewBox="-291 384 27.3 26" style="enable-background:new -291 384 27.3 26;" xml:space="preserve">
<style type="text/css">
		.st0{fill:none; stroke: #68707F;}
		.st1{fill:none;stroke: #68707F;}
</style>
<g>
	<path class="st0" d="M-270,398.9c0,2.3-11.3,3.4-18.1,4c2.6,2.3,6.1,3.7,10,3.7c5.5,0,10.3-2.8,12.6-7c0-0.4,0-0.7,0-0.7
		s0.6-1.3-0.7-2.4c-7.3-1.6-16.5-1.9-19.6-2C-284.2,396.4-270,395.9-270,398.9z"/>
	<path class="st1" d="M-269.4,395.3c-5-0.9-18.8-1.2-6.2-3.4h-2.6c-3.1,0.1-7.8,0.5-7.8,2.2c0,0.1,0.1,0.2,0.2,0.4
		c3.1,0.1,12.3,0.5,19.5,2.1C-266.9,396-267.8,395.6-269.4,395.3z"/>
</g>
</svg>
