<?xml version="1.0" encoding="utf-8"?>
<!-- Generator: Adobe Illustrator 19.1.0, SVG Export Plug-In . SVG Version: 6.00 Build 0)  -->
<svg version="1.1" id="Layer_1" xmlns="http://www.w3.org/2000/svg" xmlns:xlink="http://www.w3.org/1999/xlink" x="0px" y="0px"
	 viewBox="-57 114 27.3 26" style="enable-background:new -57 114 27.3 26;" xml:space="preserve">
<style type="text/css">
	.st0{fill:none; stroke: #68707F;}
	.st1{fill:none;}
</style>
<g>
	<path class="st0" d="M486.8,437.1L486.8,437.1c0,4.5,5.6,4.1,5.6,0c0,4.5,5.5,4.1,5.5,0l0,0c0,4.5,5.5,4.1,5.5,0h0.1
		c0,4.5,5.5,4.1,5.5,0l0,0c0,2.3,2.4,2.9,4.7,2.7c0.8-1.4,1.4-3,1.7-4.6c-2.5,0.5-5.6,0.1-5.6-2.6l0,0c0,4.1-5.5,4.5-5.5,0h-0.1
		c0,4.1-5.5,4.5-5.5,0l0,0c0,4.1-5.5,4.5-5.5,0c0,4.1-5.5,4.5-5.5,0l0,0c0,2.5-2.7,3.1-4.7,2.6c0.3,1.6,0.9,3.1,1.7,4.6
		C485.7,439.5,486.8,438.6,486.8,437.1z"/>
	<path class="st1" d="M488.5,444.7c-0.1-0.2-0.1-0.4-0.2-0.7c2.1,0.5,4.7-0.1,4.7-2.6l0,0c0,4.5,5.5,4.1,5.5,0c0,4.5,5.5,4.1,5.5,0
		l0,0c0,4.5,5.5,4.1,5.5,0h0.1c0,1.1,0.3,1.8,0.8,2.4c1.2-1.2,2.3-2.6,3.1-4.1c-2.3,0.2-4.7-0.4-4.7-2.7l0,0c0,4.1-5.5,4.5-5.5,0
		h-0.1c0,4.1-5.5,4.5-5.5,0l0,0c0,4.1-5.5,4.5-5.5,0c0,4.1-5.5,4.5-5.5,0l0,0c0,1.6-1,2.4-2.3,2.7
		C485.5,441.7,486.9,443.4,488.5,444.7z"/>
	<path class="st0" d="M491.7,446L491.7,446c0,0.3,0,0.6,0.1,0.9c1.4,0.7,3,1.2,4.6,1.5c0.5-0.5,0.8-1.3,0.8-2.3h0.1
		c0,1.2,0.4,2,0.9,2.5c0.3,0,0.5,0,0.8,0c1,0,2-0.1,3-0.3c0.5-0.5,0.8-1.3,0.8-2.3l0,0c0,0.8,0.3,1.5,0.8,1.9c2.6-0.8,5-2.1,6.9-4
		c-0.5-0.5-0.8-1.3-0.8-2.4h-0.1c0,4.1-5.5,4.5-5.5,0l0,0c0,4.1-5.5,4.5-5.5,0c0,4.1-5.5,4.5-5.5,0l0,0c0,2.5-2.7,3.1-4.7,2.6
		c0,0.2,0.1,0.4,0.2,0.7c0.9,0.8,2,1.4,3.1,2C491.7,446.5,491.7,446.2,491.7,446z"/>
	<path class="st1" d="M491.7,446c0,0.3,0,0.5-0.1,0.8c0.1,0,0.1,0.1,0.2,0.1C491.8,446.6,491.7,446.3,491.7,446L491.7,446z"/>
	<path class="st1" d="M502.9,446L502.9,446c0,1-0.3,1.7-0.8,2.3c0.6-0.1,1.1-0.2,1.6-0.4C503.2,447.4,502.9,446.8,502.9,446z"/>
	<path class="st1" d="M497.4,446L497.4,446c-0.1,1-0.4,1.8-0.9,2.3c0.6,0.1,1.2,0.2,1.9,0.2C497.7,448,497.4,447.1,497.4,446z"/>
</g>
<circle class="st0" cx="-42.7" cy="121.8" r="3.5"/>
<path class="st0" d="M-43,124.5c0,0-2.7,1.5-3.4,6.4c-0.7,4.9,0.5,5.9,1.3,5.9s3,0.1,4,0c1-0.1,1.7-2.9,1.4-6.1
	C-40.2,127.5-41.3,125-43,124.5z"/>
<circle class="st0" cx="-34.6" cy="123.2" r="2.7"/>
<path class="st0" d="M-34.9,125.3c0,0-2.1,1.2-2.6,4.8c-0.5,3.7,0.3,4.4,1,4.4s2.3,0.1,3,0s1.3-2.2,1-4.6
	C-32.7,127.5-33.5,125.6-34.9,125.3z"/>
<circle class="st0" cx="-51" cy="123.2" r="2.7"/>
<path class="st0" d="M-51.2,125.3c0,0-2.1,1.2-2.6,4.8c-0.5,3.7,0.3,4.4,1,4.4s2.3,0.1,3,0s1.3-2.2,1-4.6
	C-49.1,127.5-49.9,125.6-51.2,125.3z"/>
</svg>
