<svg xmlns="http://www.w3.org/2000/svg" xmlns:xlink="http://www.w3.org/1999/xlink" id="Layer_1" width="512" height="512" x="0" y="0" enable-background="new 0 0 512 512" version="1.1" viewBox="0 0 512 512" xml:space="preserve"><g><g><path d="M256,0C114.6,0,0,114.6,0,256s114.6,256,256,256s256-114.6,256-256S397.4,0,256,0z M391.8,391.8 C355.5,428,307.3,448,256,448s-99.5-20-135.8-56.2S64,307.3,64,256s20-99.5,56.2-135.8S204.7,64,256,64s99.5,20,135.8,56.2 S448,204.7,448,256S428,355.5,391.8,391.8z M256,128c-70.7,0-128,57.3-128,128s57.3,128,128,128s128-57.3,128-128 S326.7,128,256,128z M256,336c-44.1,0-80-35.9-80-80c0-44.1,35.9-80,80-80c44.1,0,80,35.9,80,80C336,300.1,300.1,336,256,336z M256,224c-17.7,0-32,14.3-32,32s14.3,32,32,32s32-14.3,32-32S273.7,224,256,224z"/></g></g></svg>