<svg xmlns="http://www.w3.org/2000/svg" xmlns:xlink="http://www.w3.org/1999/xlink" id="Layer_1" width="512" height="512" x="0" y="0" enable-background="new 0 0 512 512" version="1.1" viewBox="0 0 512 512" xml:space="preserve"><path d="M493.1,370.6c-3.1-12.7-6.1-24-8.6-30.6c-8.1-21.3-47.1-36.7-81.8-47.4l-5.6-1.3c-13.3,8.7-28.7,13.6-45.1,13.6	c-16.4,0-31.7-5-45.1-13.6l-5.6,1.3c-34.8,10.8-73.8,26.1-81.8,47.4c-2.5,6.6-5.6,17.9-8.6,30.6c0,0-9.6,45.3,6.5,45.3	c13.7,0,134.6,0,134.6,0s120.9,0,134.6,0C502.8,416,493.1,370.6,493.1,370.6z M352.1,281c39.8,0,72-37.6,72-84c0-46.4-32.3-84-72-84	c-39.8,0-72,37.6-72,84C280.1,243.4,312.3,281,352.1,281z M160.1,281c39.8,0,72-37.6,72-84c0-46.4-32.3-84-72-84	c-39.8,0-72,37.6-72,84C88.1,243.4,120.3,281,160.1,281z M210.8,292.7l-5.6-1.3c-13.4,8.6-28.7,13.6-45.1,13.6	c-16.4,0-31.8-4.9-45.1-13.6l-5.6,1.3c-34.7,10.7-73.7,26.1-81.8,47.4c-2.5,6.6-5.5,17.9-8.6,30.6c0,0-9.6,45.3,6.5,45.3	c13.7,0,134.6,0,134.6,0s6.8,0,17.4,0c-3.2-16.8,2.5-44.7,2.6-44.6c3.7-15.9,7.4-30.2,10.4-38.5c4.8-13.4,18.9-24.9,37-34.7	C221.9,296.2,216.3,294.4,210.8,292.7z"/></svg>