<?xml version="1.0" encoding="UTF-8"?>
<svg width="1200pt" height="1200pt" version="1.1" viewBox="0 0 1200 1200" xmlns="http://www.w3.org/2000/svg">
 <g>
  <path d="m175.74 384.38 293.01-234.38 293.01 234.38c15.531 12.422 35.363 18.168 55.133 15.973 19.766-2.1992 37.852-12.16 50.277-27.691l-351.54-281.21c-13.301-10.652-29.836-16.453-46.875-16.453s-33.574 5.8008-46.875 16.453l-351.58 281.25c12.434 15.535 30.527 25.496 50.305 27.688 19.777 2.1914 39.617-3.5664 55.145-16.008z"/>
  <path d="m731.25 408.02-262.5-210-262.5 210v230.27c5.9805-0.42969 12.074-0.78906 18.656-0.78906 43.613-0.67578 86.402 11.934 122.68 36.148 8.6758 5.6133 17.852 10.41 27.414 14.328v-256.73h187.5v209.16c24.848-3.8984 50.152-3.8984 75 0v-113.74l33.508-3.6016c20.324-2.1758 40.406-5.25 60.242-9.2266z"/>
  <path d="m599.87 862.5c-36.828-0.69922-72.965 10.066-103.41 30.805-24.59 17.266-54.074 26.188-84.109 25.445-30.027 0.73828-59.496-8.1797-84.078-25.445-30.398-20.723-66.488-31.488-103.27-30.805-36.812-0.70312-72.93 10.062-103.35 30.805-24.594 17.285-54.098 26.207-84.148 25.445v37.5c36.812 0.70312 72.93-10.062 103.35-30.805 24.598-17.285 54.098-26.203 84.148-25.445 30.027-0.73828 59.496 8.1797 84.074 25.445 30.402 20.723 66.488 31.488 103.28 30.805 36.828 0.70703 72.965-10.059 103.41-30.805 24.59-17.266 54.074-26.188 84.109-25.445 21.543-0.70703 42.93 3.8555 62.309 13.293-5.5-14.715-10.129-29.738-13.855-45-15.836-3.9961-32.121-5.9414-48.453-5.793z"/>
  <path d="m225 806.25c30.027-0.73828 59.496 8.1797 84.074 25.445 30.402 20.723 66.488 31.488 103.28 30.805 36.828 0.70703 72.965-10.059 103.41-30.805 24.59-17.266 54.074-26.188 84.109-25.445 13.23-0.19141 26.43 1.3398 39.266 4.5547-0.99219-11.477-1.6328-23.043-1.6328-34.707v-3.9375 0.003906c-12.406-2.332-25.008-3.4727-37.633-3.4141-36.828-0.69922-72.965 10.066-103.41 30.805-24.59 17.266-54.074 26.188-84.109 25.445-30.027 0.73828-59.496-8.1797-84.078-25.445-30.398-20.723-66.488-31.488-103.27-30.805-36.812-0.70312-72.93 10.062-103.35 30.805-24.594 17.285-54.098 26.207-84.148 25.445v37.5c36.812 0.70312 72.93-10.062 103.35-30.805 24.598-17.285 54.098-26.203 84.148-25.445z"/>
  <path d="m225 712.5c30.027-0.73828 59.496 8.1797 84.074 25.445 30.402 20.723 66.488 31.488 103.28 30.805 36.828 0.70703 72.965-10.059 103.41-30.805 24.59-17.266 54.074-26.188 84.109-25.445 12.668-0.16016 25.309 1.2461 37.633 4.1797v-38.266c-12.406-2.332-25.008-3.4727-37.633-3.4141-36.828-0.69922-72.965 10.066-103.41 30.805-24.59 17.266-54.074 26.188-84.109 25.445-30.027 0.73828-59.496-8.1797-84.078-25.445-30.398-20.723-66.488-31.488-103.27-30.805-36.812-0.70312-72.93 10.062-103.35 30.805-24.594 17.285-54.098 26.207-84.148 25.445v37.5c36.812 0.70312 72.93-10.062 103.35-30.805 24.598-17.285 54.098-26.203 84.148-25.445z"/>
  <path d="m918.75 487.5c-76.043 39.156-158.69 63.863-243.75 72.863v215.74c1.2383 75.824 25.102 149.55 68.531 211.71 43.434 62.168 104.45 109.94 175.22 137.18 70.77-27.246 131.79-75.016 175.22-137.18 43.43-62.168 67.293-135.89 68.531-211.71v-215.74c-85.059-9-167.71-33.703-243.75-72.863zm-42.992 425.76c-3.5195 3.5117-8.2852 5.4883-13.258 5.4883s-9.7383-1.9766-13.258-5.4883l-93.75-93.75 26.512-26.512 80.496 80.492 192.99-193 26.512 26.512z"/>
 </g>
</svg>
