<?xml version="1.0" encoding="UTF-8"?>
<svg width="1200pt" height="1200pt" version="1.1" viewBox="0 0 1200 1200" xmlns="http://www.w3.org/2000/svg">
 <g>
  <path d="m564.96 1007.5h-4.9219c-5.5195-0.60156-10.441-2.7617-13.68-7.0781-3.2383-4.3203-4.9219-9.2383-4.3203-14.762v-1.2031l6-24c-2.7617-1.6797-4.9219-3.2383-7.0781-5.5195-4.9219-5.5195-7.6797-13.078-6.6016-20.762l6-63.359c1.6797-14.16 9.2383-26.281 21.359-33.359-9.2383-9.8398-14.762-23.52-14.762-38.281 0-24 14.762-44.281 36.121-52.441l13.078-86.281c1.0781-7.0781 3.8398-13.68 8.1602-18.602-3.2383-1.0781-7.0781-2.1602-10.922-2.1602l-14.16-1.0781c-11.52 8.7617-25.078 13.68-40.441 13.68-15.238 0-29.52-4.9219-40.441-13.68l-14.16 1.0781c-21.84 1.0781-38.281 20.16-37.199 42.121l7.6797 127.92c1.0781 16.441 14.762 29.52 31.199 29.52h2.1602l13.078 198.96c1.0781 18.602 11.52 28.922 24.602 28.922h25.68c7.0781 0 14.16-3.2383 18.602-9.2383-1.0781-2.7617-1.6797-5.5195-2.1602-8.1602z"/>
  <path d="m484.08 585.12c0 30.48 24.719 55.199 55.199 55.199 30.48 0 55.199-24.719 55.199-55.199 0-30.48-24.719-55.199-55.199-55.199-30.477 0-55.199 24.719-55.199 55.199z"/>
  <path d="m670.32 640.32c30.48 0 55.199-24.719 55.199-55.199 0-30.48-24.719-55.199-55.199-55.199-30.48 0-55.199 24.719-55.199 55.199 0.11719 30.48 24.719 55.199 55.199 55.199z"/>
  <path d="m732.72 661.68c-1.6797-12-11.52-20.762-23.52-21.84h-0.60156c-10.922 7.6797-24 12.602-38.762 12.602-14.762 0-27.84-4.3203-38.762-12.602h-0.60156c-12 1.0781-21.84 10.441-23.52 21.84l-12 80.879c2.7617-0.60156 5.5195-0.60156 8.7617-0.60156 31.199 0 56.879 25.078 56.879 56.879 0 14.762-5.5195 27.84-14.762 38.281 12 7.0781 19.68 19.078 21.359 33.359l6 63.359c0.60156 7.6797-1.6797 15.359-6.6016 20.762-2.1602 2.1602-4.3203 4.3203-7.0781 5.5195l6 24v1.2031c0.60156 5.5195-0.60156 10.922-4.3203 14.762-3.2383 4.3203-8.1602 6.6016-14.16 7.0781h-4.3203l-3.8398 40.441v1.0781c3.2383 9.8398 12.602 16.922 23.52 16.922h14.16c13.078 0 23.52-9.8398 24.602-22.922l8.7617-131.64 27.359-1.6797c7.6797-0.60156 13.68-7.0781 12.602-14.762l-14.762-62.281h1.6797c11.52 0 20.762-10.441 18.602-21.84z"/>
  <path d="m604.2 844.2c25.078 0 45.359-20.281 45.359-45.359s-20.281-45.359-45.359-45.359-45.359 20.281-45.359 45.359c0.12109 24.961 20.398 45.359 45.359 45.359z"/>
  <path d="m655.08 986.76-9.2383-34.922h1.6797c9.2383 0 16.441-7.6797 15.238-16.922l-6.6016-63.359c-1.0781-12-9.2383-22.441-20.16-26.762-9.2383 6.6016-20.16 9.8398-31.68 9.8398-12 0-22.922-3.8398-31.68-9.8398-10.922 4.3203-19.078 14.762-20.16 26.762l-6.6016 63.359c-1.0781 9.2383 6 16.922 15.238 16.922h1.6797l-9.2383 34.922c-0.60156 4.3203 2.7617 8.7617 7.0781 8.7617l14.648 0.47656 4.9219 50.281c1.0781 10.922 9.8398 19.078 20.762 19.078h6.6016c10.922 0 19.68-8.1602 20.762-19.078l4.9102-50.281 14.762-0.48047c4.3203 0 7.6797-4.4414 7.0781-8.7578z"/>
  <path d="m484.08 416.16c0.48047-11.16-13.922-29.281-29.762-34.32-11.16-3.7188-14.398 1.3203-19.441 5.5195-21.48 22.801-29.039 33.359-42.961 49.801-1.0781 1.6797-3.6016 3.8398-4.4414 6.8398l-34.32 66.602c-1.1992 3-3.3594 5.2812-5.8789 6.9609-3.9609-4.5586-4.4414-11.762-1.6797-18.48l45.121-89.039c1.0781-1.6797 1.0781-1.6797 2.1602-3.3594 2.2812-1.9219 50.52-60.602 79.922-92.762l78.719-101.52c8.0391-9.9609 6.6016-24.602-3.3594-32.762-8.5195-6.9609-20.762-7.0781-29.398-0.23828l-246.36 202.32c-28.68 23.52-49.559 55.801-56.762 89.641l-42.355 147.84c-5.8828 19.68-65.281 355.44-65.281 355.44h192.84l16.199-243.84 5.3984-25.68c5.0391-4.1992 10.199-8.5195 15.121-12.961 9.9609-8.3984 21.238-17.16 30.84-26.879 27-24.359 48.48-54 64.68-107.16 5.1602-16.68 3.8398-24.602 10.559-40.441 12.84-28.559 5.1602-16.68 21.602-42.121 17.043-29.758 18.961-45.598 18.84-59.398z"/>
  <path d="m1027.9 619.2-42.359-147.72c-7.1992-33.84-28.078-66.121-56.762-89.641l-246.36-202.68c-8.6406-6.8398-20.879-6.7188-29.398 0.23828-9.9609 8.1602-11.398 22.801-3.3594 32.762l78.719 101.52c29.398 32.16 77.762 90.84 79.922 92.762 1.0781 1.6797 1.0781 1.6797 2.1602 3.3594l45.121 89.039c2.7617 6.7188 2.2812 13.922-1.6797 18.48-2.5195-1.8008-4.6797-4.0781-5.8789-6.9609l-34.328-66.359c-0.83984-3-3.2383-5.0391-4.4414-6.8398-14.039-16.441-21.602-27-42.961-49.801-4.9219-4.1992-8.2812-9.2383-19.441-5.5195-15.84 5.1602-30.238 23.16-29.762 34.32-0.12109 13.801 1.8008 29.641 18.719 59.398 16.441 25.441 8.7617 13.559 21.602 42.121 6.8398 15.84 5.5195 23.762 10.559 40.441 16.199 53.039 37.68 82.801 64.68 107.16 9.6016 9.7188 21 18.48 30.84 26.879 5.0391 4.4414 10.199 8.7617 15.121 12.961l5.3984 25.68 16.199 243.84h192.97s-59.398-335.76-65.277-355.44z"/>
 </g>
</svg>
