<?xml version="1.0" encoding="UTF-8"?>
<svg width="120" height="120" version="1.1" viewBox="0 0 1200 1200" xmlns="http://www.w3.org/2000/svg">
 <path d="m900 60c-19.883 0-36 16.117-36 36s16.117 36 36 36h117l-154.12 154.12c-57.273-50.965-132.45-82.125-214.88-82.125-46.969 0-91.652 10.031-132 28.125-40.348-18.094-85.031-28.125-132-28.125-178.52 0-324 145.48-324 324 0 166.32 126.37 304.1 288 322.12v85.875h-96c-19.883 0-36 16.117-36 36s16.117 36 36 36h96v96c0 19.883 16.117 36 36 36s36-16.117 36-36v-96h96c19.883 0 36-16.117 36-36s-16.117-36-36-36h-96v-85.875c33.793-3.7695 66.125-12.852 96-26.25 40.348 18.094 85.031 28.125 132 28.125 178.52 0 324-145.49 324-324 0-70.281-22.512-135.45-60.75-188.62l156.75-156.75-0.375 117 72 0.375 0.375-204c0-9.5469-3.793-18.703-10.547-25.457-6.75-6.75-15.906-10.543-25.453-10.543zm239.62 240h-71.625c0 19.883 16.117 36 36 36s36-16.117 36-36zm-755.62-24c18.547 0 36.613 2.2305 54 6-69.57 59.496-114 147.6-114 246s44.43 186.5 114 246c-17.387 3.7695-35.453 6-54 6-139.6 0-252-112.4-252-252s112.4-252 252-252zm264 0c139.6 0 252 112.4 252 252s-112.4 252-252 252c-18.547 0-36.613-2.2305-54-6 69.57-59.496 114-147.61 114-246 0-98.398-44.43-186.5-114-246 17.387-3.7695 35.453-6 54-6zm-132 37.5c71.961 44.277 120 123.47 120 214.5s-48.039 170.23-120 214.5c-71.961-44.273-120-123.47-120-214.5s48.039-170.22 120-214.5z"/>
</svg>
