<?xml version="1.0" encoding="UTF-8"?>
<svg width="1200pt" height="1200pt" version="1.1" viewBox="0 0 1200 1200" xmlns="http://www.w3.org/2000/svg">
 <g>
  <path d="m491.25 241.69h51v51c0 4.9727 1.9766 9.7422 5.4922 13.258 3.5156 3.5156 8.2852 5.4922 13.258 5.4922h78c4.9727 0 9.7422-1.9766 13.258-5.4922 3.5156-3.5156 5.4922-8.2852 5.4922-13.258v-51h51c4.9727 0 9.7422-1.9766 13.258-5.4922 3.5156-3.5156 5.4922-8.2852 5.4922-13.258v-78.188c0-4.9727-1.9766-9.7422-5.4922-13.258-3.5156-3.5156-8.2852-5.4922-13.258-5.4922h-51v-51c0-4.9727-1.9766-9.7422-5.4922-13.258-3.5156-3.5156-8.2852-5.4922-13.258-5.4922h-78c-4.9727 0-9.7422 1.9766-13.258 5.4922-3.5156 3.5156-5.4922 8.2852-5.4922 13.258v51h-51c-4.9727 0-9.7422 1.9766-13.258 5.4922-3.5156 3.5156-5.4922 8.2852-5.4922 13.258v78.188c0 4.9727 1.9766 9.7422 5.4922 13.258 3.5156 3.5156 8.2852 5.4922 13.258 5.4922zm18.75-78.188h51c4.9727 0 9.7422-1.9766 13.258-5.4922 3.5156-3.5156 5.4922-8.2852 5.4922-13.258v-51h40.5v51c0 4.9727 1.9766 9.7422 5.4922 13.258 3.5156 3.5156 8.2852 5.4922 13.258 5.4922h51v40.688h-51c-4.9727 0-9.7422 1.9766-13.258 5.4922-3.5156 3.5156-5.4922 8.2852-5.4922 13.258v51h-40.5v-51c0-4.9727-1.9766-9.7422-5.4922-13.258-3.5156-3.5156-8.2852-5.4922-13.258-5.4922h-51z"/>
  <path d="m1065.8 789.56c-28.742-28.602-63.625-50.273-102-63.375 27.16-15.879 49.289-39.098 63.848-66.984 14.559-27.891 20.957-59.32 18.457-90.684-2.4961-31.359-13.789-61.379-32.582-86.613-18.789-25.23-44.316-44.652-73.648-56.031s-61.277-14.254-92.168-8.293c-30.891 5.957-59.473 20.508-82.469 41.98-19.473-41.477-54.027-73.965-96.625-90.848-42.598-16.879-90.027-16.879-132.62 0-42.598 16.883-77.152 49.371-96.625 90.848-22.91-21.445-51.395-36.016-82.195-42.039-30.801-6.0234-62.672-3.2578-91.977 7.9766-29.301 11.234-54.852 30.488-73.73 55.559-18.879 25.07-30.32 54.945-33.023 86.215-2.6992 31.266 3.4492 62.66 17.75 90.598s36.172 51.285 63.113 67.379c-53.188 17.566-99.488 51.438-132.34 96.809-32.848 45.367-50.574 99.93-50.664 155.94v118.12c0 12.633 5.0195 24.746 13.949 33.676 8.9297 8.9297 21.043 13.949 33.676 13.949h992.25c12.633 0 24.746-5.0195 33.676-13.949 8.9297-8.9297 13.949-21.043 13.949-33.676v-118.12c0.0625-35-6.7969-69.668-20.184-102.01-13.387-32.34-33.035-61.711-57.816-86.43zm-186.38-337.5c46.523 0 89.512 24.82 112.77 65.109 23.262 40.289 23.262 89.93 0 130.22-23.262 40.289-66.25 65.109-112.77 65.109h-1.875c-26.168-0.27344-51.633-8.4883-73.027-23.555-21.395-15.066-37.711-36.277-46.785-60.82 1.5-2.8125 2.8125-5.8125 4.125-8.625s3.375-6.1875 4.875-9.5625c2.0273-4.5781 3.7773-9.2773 5.25-14.062 1.2578-3.0547 2.3242-6.1875 3.1875-9.375 1.5586-5.3633 2.8086-10.809 3.75-16.312 0-2.625 1.125-5.25 1.5-7.875 1.1836-8.3242 1.8086-16.719 1.875-25.125-0.0625-7.0195-0.5-14.027-1.3125-21l-1.125-6.5625c0-3 0-6-1.3125-9 24.617-30.578 61.625-48.531 100.88-48.938zm-109.5 282.56c-24.266-17.812-51.234-31.613-79.875-40.875 15.312-8.9648 29.215-20.148 41.25-33.188 14.215 26.77 35.484 49.141 61.5 64.688-7.3125 2.8125-15.188 6-22.875 9.375zm-167.62-340.88c31.496-0.027344 62.113 10.395 87.055 29.633 24.938 19.238 42.789 46.207 50.758 76.68 3.1484 11.805 4.7227 23.973 4.6875 36.188 0.003906 7.2188-0.55859 14.43-1.6875 21.562-3.1211 20.098-10.539 39.281-21.75 56.25-26.348 40.07-71.105 64.176-119.06 64.125h-2.25c-43.688-0.69531-84.648-21.371-111.16-56.105s-35.637-79.695-24.781-122.02c8.043-30.504 25.965-57.48 50.969-76.719 25-19.234 55.672-29.641 87.219-29.594zm-172.12 340.88c-7.125-3.1875-14.062-6.1875-21.375-8.625 26.867-15.551 48.875-38.273 63.562-65.625 11.898 12.516 25.539 23.25 40.5 31.875-29.691 9.5195-57.621 23.832-82.688 42.375zm-235.5-153.38c-0.035156-36.102 14.949-70.586 41.363-95.195 26.414-24.609 61.875-37.117 97.883-34.531 36.008 2.5859 69.316 20.035 91.941 48.164 0 2.8125-0.9375 5.8125-1.3125 8.8125s0 4.3125-0.9375 6.375c-0.81641 6.9727-1.2539 13.98-1.3125 21-0.035156 8.3477 0.58984 16.688 1.875 24.938 0 2.8125 0.9375 5.4375 1.5 8.0625s2.0625 10.875 3.5625 16.312 2.0625 6 3.1875 9c1.4688 4.9102 3.2227 9.7305 5.25 14.438l4.5 9c1.5 3 2.8125 6 4.3125 8.8125-9.0273 25.082-25.539 46.789-47.301 62.18-21.766 15.391-47.73 23.73-74.387 23.883h-1.875c-34.285-0.78516-66.906-14.957-90.875-39.488-23.969-24.527-37.383-57.465-37.375-91.762zm-90.75 525c-5.5938 0-10.125-4.5312-10.125-10.125v-118.12c0.34766-60.523 24.605-118.46 67.492-161.17 42.887-42.711 100.92-66.734 161.45-66.832h1.875c24.977 0.15234 49.754 4.4609 73.312 12.75-1.6875 1.6875-3 3.5625-4.6875 5.25-5.375 5.625-10.625 11.438-15.75 17.438-2.25 2.8125-4.3125 5.8125-6.375 8.625s-7.6875 10.5-11.25 15.938-4.125 6.75-6.1875 10.312-6.1875 10.5-8.8125 15.938-3.75 7.3125-5.4375 11.25-4.6875 10.875-6.9375 16.688-2.8125 7.5-4.125 11.438-3.5625 12-5.0625 18.75-2.0625 7.5-3 11.438-2.4375 13.312-3.375 20.25c0 3.1875-1.125 6.5625-1.5 9.75-1.125 10.273-1.6875 20.602-1.6875 30.938v127.88c0.011719 3.8594 0.51562 7.7031 1.5 11.438-0.085938 0.37109-0.085938 0.75391 0 1.125zm246.56-12.562v-127.88c-0.078125-18.934 2.0625-37.812 6.375-56.25 12.711-54.984 43.668-104.04 87.832-139.18 44.16-35.137 98.922-54.285 155.36-54.316h2.0625c55.98 0.26562 110.2 19.574 153.75 54.75 7.3359 5.7266 14.23 11.992 20.625 18.75 23.223 23.172 41.637 50.703 54.188 81.016s18.984 62.805 18.938 95.609v127.88c0 6.9375-5.625 12.562-12.562 12.562h-474c-3.3984 0-6.6523-1.375-9.0195-3.8125-2.3672-2.4375-3.6445-5.7305-3.543-9.125zm755.81 2.4375c0 5.5938-4.5312 10.125-10.125 10.125h-210.75c0.085938-0.37109 0.085938-0.75391 0-1.125 0.98438-3.7344 1.4883-7.5781 1.5-11.438v-127.88c0.074219-37.742-7.3047-75.125-21.723-110.01-14.414-34.879-35.578-66.566-62.277-93.242-0.066406-0.30859-0.066406-0.62891 0-0.9375 24.129-8.3203 49.477-12.562 75-12.562h1.875c60.277 0.69141 117.86 25.109 160.25 67.965 42.398 42.852 66.199 100.69 66.246 160.97z"/>
 </g>
</svg>
