<?xml version="1.0" encoding="UTF-8"?>
<svg width="1200pt" height="1200pt" version="1.1" viewBox="0 0 1200 1200" xmlns="http://www.w3.org/2000/svg">
 <g>
  <path d="m1051.2 414.59v-81.59h65.352l-112.13-200.43h-401.6v-40.57h-309.97v237.37h-95.352v259.69h-35.41l-94.035 134.33h103.07v121.29h-42.602v263.32h989.62l0.003907-693.41zm36.938 269.83h-140.39v-65.363h111.31l-61.703-142.21-173.39-0.003906v-32.258h264.17zm-158.23 393.59h-59.855v-77.531h59.855zm-89.855-107.53v107.53h-109.4v-67.379h97.297l-61.812-51.758h271.31v119.14h-77.531v-107.53zm-365.04-32.879h218.96l51.395 43.031h-270.36zm562.43-8.7266h-307.15l-25.414-21.277h-33.059l-0.003906-97.832h365.63zm-365.63-149.11v-56.363h90.887l-73.031-104.34h228.07v160.7zm24.984-523.86v130.29h-231.93v-130.29zm-261.93 176.94h-150.56v-16.668h150.56zm0 156.21h-150.56v-26.797h150.56zm30-172.87h231.93v60.672h-103.08l-48.684 112.21h-80.16zm148.52 90.66h364.27l35.664 82.211h-435.6zm304.36-92.254h-140.45v-25.801h140.44l-0.003906 25.801zm103.45 0h-73.453v-55.801h-200.45v85.801h46.668v32.258h-67.176v-143.85h294.41zm-34.379-252.02 78.562 140.43h-338.59v-77.102h-54.984v-63.324zm-345.01 0v63.324h-38.988v-63.324zm-318.96 131.88h83.387v-30h-83.387v-142.45h249.97v103.89h-137.95v103.48h-112.02zm112.02 64.906v26.809h-180.56v76.668h180.56v14.004h-207.37v-117.48zm-207.37 147.48h207.37v25.402h-180.56v56.797h-26.809zm-101.82 186.55 52.031-74.34h475.36l52.031 74.34zm75.445 30h440.69v184.2l-26.809 0.003906v-39.793h-30v39.793h-109.99v-62.902l-273.89-0.003906zm195.2 354.61h-195.2v-55.223h195.2zm48.684 0h-18.695v-85.223h-255.19v85.223h-12.602v-203.32h286.5v203.32zm30-67.379h225.62v67.379h-225.62zm592.43 67.379v-298.25h-119.7v-65.34h140.39v363.59z"/>
  <path d="m238.07 833.09h92.891v-92.879h-92.891zm30-62.883h32.891v32.879h-32.891z"/>
  <path d="m359.8 833.09h92.891v-92.879h-92.891zm30-62.883h32.891v32.879h-32.891z"/>
  <path d="m574.43 740.21h-92.891v92.879h92.891zm-30 62.883h-32.891v-32.879h32.891z"/>
  <path d="m585 815.48h30v44.207h-30z"/>
  <path d="m554.63 142.73h-209.52v74.629h209.52zm-30 44.629h-149.52v-14.629h149.52z"/>
  <path d="m568 286.26h-86.473v81.227h86.473zm-30 51.227h-26.473v-21.227h26.473z"/>
  <path d="m677.55 286.26h-86.473v81.227h86.473zm-30 51.227h-26.473v-21.227h26.473z"/>
  <path d="m568 432.34h-86.473v81.227h86.473zm-30 51.227h-26.473v-21.227h26.473z"/>
  <path d="m771.66 650.93v99.984l125.34-0.003906v-99.984zm95.34 69.98h-65.34v-39.984h65.34z"/>
  <path d="m838.18 830.48h-104.86v79.715h104.86zm-30 49.715h-44.855v-19.715h44.855z"/>
  <path d="m959.9 830.48h-104.86v79.715h104.86zm-30 49.715h-44.855v-19.715h44.855z"/>
  <path d="m426.32 895.4h-249.11v78.707h249.11zm-30 48.711h-189.11v-18.707h189.11z"/>
 </g>
</svg>
